<?xml version="1.0" encoding="utf-8"?>
<!-- Generator: Adobe Illustrator 27.5.0, SVG Export Plug-In . SVG Version: 6.00 Build 0)  -->
<svg version="1.1" xmlns="http://www.w3.org/2000/svg" xmlns:xlink="http://www.w3.org/1999/xlink" x="0px" y="0px"
	 viewBox="0 0 4000 2500" style="enable-background:new 0 0 4000 2500;" xml:space="preserve">
<g id="_x3C_Layer_x3E_">
	<g>
		<rect style="fill:#F5F5F5;" width="4000" height="2500"/>
		<linearGradient id="SVGID_1_" gradientUnits="userSpaceOnUse" x1="2616.667" y1="2229.0552" x2="2616.667" y2="-9.094947e-13">
			<stop  offset="0" style="stop-color:#7094FB"/>
			<stop  offset="1" style="stop-color:#F31E61"/>
		</linearGradient>
		<path style="opacity:0.25;fill:url(#SVGID_1_);" d="M3121.191,2227.422c562.9-17.866,797.627-596.099,743.441-1250.122
			C3831.676,579.539,3653.428,211.592,3329.004,0H1970.601c-140.757,89.432-247.396,198.564-330.769,298.406
			c-335.25,401.464-377.723,1080.036-74.742,1427.624C1868.074,2073.619,2472.479,2248.008,3121.191,2227.422z"/>
		
			<linearGradient id="SVGID_00000171690328307971753000000008467861104921803397_" gradientUnits="userSpaceOnUse" x1="2888.0398" y1="2441.0005" x2="2888.0398" y2="-9.094947e-13">
			<stop  offset="0" style="stop-color:#7094FB"/>
			<stop  offset="1" style="stop-color:#F31E61"/>
		</linearGradient>
		<path style="opacity:0.25;fill:url(#SVGID_00000171690328307971753000000008467861104921803397_);" d="M2581.527,2351.537
			c476.211,202.764,1133.092,48.561,1377.867-338.275c14.409-22.768,27.92-46.382,40.605-70.732V405.215
			c-1.182-3.601-2.344-7.205-3.539-10.803C3933.447,205.122,3813.989,76.362,3658.769,0h-926.22
			c-44.634,14.326-89.395,30.283-134.101,47.893c-544.938,214.643-938.495,711.423-791.231,1376.14
			C1935.952,2005.111,2301.729,2232.406,2581.527,2351.537z"/>
		
			<linearGradient id="SVGID_00000174570406680748437370000004277701872144193175_" gradientUnits="userSpaceOnUse" x1="1789.8406" y1="2185.5466" x2="3841.7661" y2="463.7767">
			<stop  offset="0" style="stop-color:#F31E61"/>
			<stop  offset="1" style="stop-color:#7094FB"/>
		</linearGradient>
		<path style="opacity:0.25;fill:url(#SVGID_00000174570406680748437370000004277701872144193175_);" d="M3988.648,1487.041
			c3.837-10.679,7.622-21.465,11.352-32.31V661.708c-62.529-101.823-162.699-190.685-314.225-257.244
			c-513.724-225.666-1753.937-67.058-2113.642,636.775c-291.536,570.443,132.019,1234.854,652.07,1458.76h760.542
			C3469.223,2316.631,3859.185,1847.343,3988.648,1487.041z"/>
		<g>
			<path style="fill:#26283A;" d="M269.89,135.471v34.878h20.942v14.148h-37.121v-49.026H269.89z"/>
			<path style="fill:#26283A;" d="M320.083,134.419c17.51,0,26.264,11.907,26.264,25.564c0,13.656-8.754,25.564-26.264,25.564
				c-17.507,0-26.262-11.907-26.262-25.564C293.821,146.326,302.576,134.419,320.083,134.419z M320.083,146.326
				c-8.471,0-12.954,5.814-12.954,13.658c0,7.844,4.483,13.656,12.954,13.656c8.477,0,12.959-5.813,12.959-13.656
				C333.042,152.139,328.56,146.326,320.083,146.326z"/>
			<path style="fill:#26283A;" d="M377.764,134.49c5.254,0,10.508,1.121,15.059,3.152v10.015c-3.711-2.451-8.685-3.782-13.657-3.782
				c-8.755,0-17.368,4.624-17.368,16.109c0,13.027,9.595,16.321,16.807,16.321c2.102,0,3.923-0.352,5.395-0.911v-17.51h10.015
				v24.301c-4.902,2.102-10.505,3.294-15.97,3.294c-13.728,0-26.965-7.495-26.965-25.495
				C351.079,142.195,364.316,134.49,377.764,134.49z"/>
			<path style="fill:#26283A;" d="M426.203,134.561c17.229,0,25.774,12.466,25.774,25.423c0,12.958-8.545,25.424-25.774,25.424
				c-17.299,0-25.773-12.466-25.773-25.424C400.43,147.026,408.904,134.561,426.203,134.561z M426.203,142.053
				c-11.836,0-17.648,8.545-17.648,17.93c0,9.387,5.813,17.929,17.648,17.929c11.907,0,17.649-8.542,17.649-17.929
				C443.853,150.598,438.11,142.053,426.203,142.053z"/>
			<path style="fill:#26283A;" d="M496.069,135.471v5.603H478.84v43.423h-5.883v-43.423h-17.229v-5.603H496.069z"/>
			<path style="fill:#26283A;" d="M517.478,184.497v-19.122l-19.26-29.904h4.622l16.741,26.123l16.738-26.123h4.621l-19.26,29.904
				v19.122H517.478z"/>
			<path style="fill:#26283A;" d="M564.797,135.471c10.925,0,20.52,3.43,20.52,15.337c0,11.978-9.595,15.41-20.52,15.41h-12.815
				v18.279h-2.803v-49.026H564.797z M564.937,138.133h-12.954v25.422h12.954c9.458,0,17.58-2.662,17.58-12.747
				C582.517,140.793,574.463,138.133,564.937,138.133z"/>
			<path style="fill:#26283A;" d="M627.036,135.471v1.68h-30.115v21.853h28.016v1.68h-28.016v22.133h30.745v1.68h-32.495v-49.026
				H627.036z"/>
		</g>
		
			<linearGradient id="SVGID_00000036220075482288389160000016353668554050758320_" gradientUnits="userSpaceOnUse" x1="250" y1="1668.7988" x2="849.9995" y2="1668.7988">
			<stop  offset="0" style="stop-color:#405BA8"/>
			<stop  offset="1" style="stop-color:#7094FB"/>
		</linearGradient>
		<path style="fill:url(#SVGID_00000036220075482288389160000016353668554050758320_);" d="M325,1593.799h450
			c41.42,0,74.999,33.579,74.999,75l0,0c0,41.422-33.579,75-74.999,75H325c-41.421,0-75-33.578-75-75l0,0
			C250,1627.378,283.579,1593.799,325,1593.799z"/>
		<g>
			<path style="fill:#FFFFFF;" d="M371.299,1635.494c6.001,0,11.924,1.278,16.965,3.682v8.881c-4.241-2.72-9.924-4.16-15.686-4.16
				c-10.964,0-22.01,6-22.01,20.648c0,16.008,11.605,20.729,21.771,20.729c3.121,0,6.162-0.561,8.403-1.602v-21.211h8.882v27.373
				c-5.361,2.402-11.684,3.76-17.847,3.76c-15.527,0-30.571-8.164-30.571-29.049C341.206,1644.775,356.25,1635.494,371.299,1635.494
				z"/>
			<path style="fill:#FFFFFF;" d="M416.572,1653.102c15.288,0,20.569,12.324,18.088,23.446H405.77
				c0.959,6.885,7.683,9.766,14.724,9.766c4.644,0,8.884-1.122,12.168-2.726v7.364c-3.522,1.685-8.405,2.642-13.767,2.642
				c-11.765,0-21.77-6.719-21.77-20.248C397.125,1659.424,407.69,1653.102,416.572,1653.102z M416.973,1660.22
				c-5.762,0-10.964,3.442-11.284,9.927h21.289C427.456,1666.782,425.376,1660.22,416.973,1660.22z"/>
			<path style="fill:#FFFFFF;" d="M454.648,1640.454v13.687h13.926v7.52h-13.926v17.608c0,5.042,2.322,6.723,7.285,6.723
				c2.801,0,5.362-0.562,7.765-1.519v7.364c-2.884,1.04-6.563,1.679-10.328,1.679c-7.442,0-13.203-3.682-13.203-12.646v-19.209
				h-6.885v-7.52h6.885v-11.606L454.648,1640.454z"/>
			<path style="fill:#FFFFFF;" d="M508.809,1653.102c5.283,0,10.083,1.356,13.846,3.281v7.519
				c-3.201-2.159-8.724-3.761-13.285-3.761c-3.442,0-7.124,1.041-7.124,4.162c0,7.445,23.13,4.003,23.13,18.007
				c0,8.487-7.844,11.284-16.567,11.284c-5.6,0-11.284-1.357-15.047-3.682v-7.603c4.002,2.642,9.844,4.081,14.647,4.081
				c4.802,0,8.325-0.8,8.325-3.92c0-7.124-23.211-4.16-23.211-17.926C493.522,1656.143,501.206,1653.102,508.809,1653.102z"/>
			<path style="fill:#FFFFFF;" d="M544.407,1640.454v13.687h13.926v7.52h-13.926v17.608c0,5.042,2.322,6.723,7.283,6.723
				c2.803,0,5.361-0.562,7.764-1.519v7.364c-2.881,1.04-6.563,1.679-10.324,1.679c-7.444,0-13.206-3.682-13.206-12.646v-19.209
				h-6.883v-7.52h6.883v-11.606L544.407,1640.454z"/>
			<path style="fill:#FFFFFF;" d="M601.934,1686.475c0.884,0,1.763-0.243,2.563-0.483v6.163c-1.602,0.639-3.52,0.961-5.444,0.961
				c-3.52,0-6.321-1.363-7.681-4.482c-3.762,3.043-8.484,4.961-14.487,4.961c-6.962,0-13.445-3.837-13.445-11.763
				c0-9.845,9.124-12.886,17.127-12.886c3.281,0,6.963,0.479,10.005,1.119v-1.359c0-4.804-3.521-8.162-10.083-8.162
				c-5.684,0-10.405,1.439-13.848,2.958v-7.842c3.042-1.04,8.564-2.558,14.727-2.558c10.884,0,17.768,5.199,17.768,16.805v13.766
				C599.136,1685.83,600.415,1686.475,601.934,1686.475z M572.244,1681.27c0,3.765,3.362,5.685,7.202,5.685
				c4.082,0,8.083-1.524,11.125-4.562v-6.484c-2.322-0.479-5.603-0.961-8.325-0.961
				C577.366,1674.947,572.244,1676.47,572.244,1681.27z"/>
			<path style="fill:#FFFFFF;" d="M634.17,1653.34v8.402c-6.884-0.961-12.886,2.08-15.205,7.525v23.286H610.4v-38.413h7.603v6.323
				C620.964,1655.742,627.207,1652.699,634.17,1653.34z"/>
			<path style="fill:#FFFFFF;" d="M651.924,1640.454v13.687h13.926v7.52h-13.926v17.608c0,5.042,2.319,6.723,7.283,6.723
				c2.8,0,5.364-0.562,7.764-1.519v7.364c-2.881,1.04-6.563,1.679-10.324,1.679c-7.441,0-13.206-3.682-13.206-12.646v-19.209h-6.883
				v-7.52h6.883v-11.606L651.924,1640.454z"/>
			<path style="fill:#FFFFFF;" d="M690.964,1653.102c15.286,0,20.569,12.324,18.089,23.446h-28.892
				c0.96,6.885,7.683,9.766,14.727,9.766c4.642,0,8.881-1.122,12.163-2.726v7.364c-3.521,1.685-8.403,2.642-13.765,2.642
				c-11.766,0-21.767-6.719-21.767-20.248C671.519,1659.424,682.08,1653.102,690.964,1653.102z M691.365,1660.22
				c-5.761,0-10.964,3.442-11.284,9.927h21.289C701.851,1666.782,699.768,1660.22,691.365,1660.22z"/>
			<path style="fill:#FFFFFF;" d="M756.812,1636.534v56.02h-7.681v-6.079c-2.964,3.759-7.524,7.119-14.727,7.119
				c-11.606,0-19.047-9.204-19.047-20.248c0-11.041,7.442-20.244,19.047-20.244c6.724,0,11.205,2.958,13.846,6v-22.567H756.812z
				 M735.923,1660.62c-6.88,0-11.924,5.205-11.924,12.726c0,7.523,5.044,12.729,11.924,12.729c6.006,0,10.405-3.844,12.246-8.086
				v-9.365C746.328,1664.463,741.929,1660.62,735.923,1660.62z"/>
		</g>
		<g>
			<path style="fill:#232536;" d="M2196.27,142.52v41.978h-6.836v-17.871h-22.13v17.871h-6.836V142.52h6.836v17.808h22.13V142.52
				H2196.27z"/>
			<path style="fill:#232536;" d="M2218.481,154.932c8.097,0,15.59,5.22,15.59,15.171c0,9.956-7.493,15.171-15.59,15.171
				c-8.038,0-15.591-5.215-15.591-15.171C2202.891,160.151,2210.443,154.932,2218.481,154.932z M2218.481,160.811
				c-5.396,0-9.116,3.658-9.116,9.292c0,5.64,3.721,9.297,9.116,9.297c5.336,0,9.052-3.657,9.052-9.297
				C2227.533,164.468,2223.817,160.811,2218.481,160.811z"/>
			<path style="fill:#232536;" d="M2240.327,184.497v-28.784h5.697v3.599c1.563-1.743,4.918-4.38,9.595-4.38
				c4.317,0,7.316,1.802,8.995,4.619c2.52-2.52,5.878-4.619,10.078-4.619c7.612,0,10.913,5.64,10.913,11.572v17.993h-6.422v-17.813
				c0-3.716-2.217-6.055-5.692-6.055c-3.179,0-5.64,2.1-7.134,3.897c0.06,0.659,0.117,1.318,0.117,1.977v17.993h-6.417v-17.813
				c0-3.716-2.216-6.055-5.697-6.055c-3.477,0-6.117,2.52-7.617,4.438v19.429H2240.327z"/>
			<path style="fill:#232536;" d="M2306.143,154.932c11.45,0,15.41,9.233,13.549,17.573h-21.645
				c0.718,5.156,5.757,7.314,11.029,7.314c3.481,0,6.661-0.84,9.118-2.041v5.518c-2.638,1.26-6.296,1.978-10.313,1.978
				c-8.813,0-16.308-5.034-16.308-15.171C2291.573,159.668,2299.487,154.932,2306.143,154.932z M2306.44,160.269
				c-4.315,0-8.218,2.578-8.452,7.437h15.947C2314.297,165.186,2312.74,160.269,2306.44,160.269z"/>
		</g>
		<g>
			<path style="fill:#232536;" d="M2447.588,184.497l17.754-41.978h7.489l17.695,41.978h-7.197l-3.716-9.058h-21.048l-3.722,9.058
				H2447.588z M2460.903,169.443h16.309l-7.374-17.93c-0.244-0.658-0.482-1.318-0.78-2.338c-0.298,1.02-0.542,1.68-0.781,2.338
				L2460.903,169.443z"/>
			<path style="fill:#232536;" d="M2501.344,142.52v16.909c1.977-2.216,5.336-4.497,10.375-4.497
				c8.633,0,14.271,6.895,14.271,15.171c0,8.277-5.639,15.171-14.271,15.171c-5.4,0-8.818-2.515-11.098-5.337v4.561h-5.694V142.52
				H2501.344z M2510.518,160.571c-4.439,0-7.798,2.876-9.174,5.996v7.017c1.376,3.174,4.734,6.055,9.174,6.055
				c5.219,0,8.936-3.896,8.936-9.536C2519.453,164.468,2515.736,160.571,2510.518,160.571z"/>
			<path style="fill:#232536;" d="M2546.035,154.932c8.101,0,15.596,5.22,15.596,15.171c0,9.956-7.495,15.171-15.596,15.171
				c-8.032,0-15.587-5.215-15.587-15.171C2530.448,160.151,2538.003,154.932,2546.035,154.932z M2546.035,160.811
				c-5.396,0-9.11,3.658-9.11,9.292c0,5.64,3.714,9.297,9.11,9.297c5.342,0,9.058-3.657,9.058-9.297
				C2555.093,164.468,2551.377,160.811,2546.035,160.811z"/>
			<path style="fill:#232536;" d="M2595.171,155.713v28.784h-5.698v-3.96c-2.1,2.52-5.635,4.736-10.016,4.736
				c-7.61,0-11.869-4.917-11.869-11.753v-17.808h6.416v16.968c0,4.678,2.456,6.899,6.714,6.899c3.657,0,6.415-2.461,8.036-4.8
				v-19.067H2595.171z"/>
			<path style="fill:#232536;" d="M2611.68,145.459v10.254h10.435v5.635h-10.435v13.193c0,3.779,1.738,5.039,5.454,5.039
				c2.104,0,4.023-0.42,5.82-1.142v5.517c-2.158,0.782-4.917,1.26-7.735,1.26c-5.58,0-9.896-2.759-9.896-9.473v-14.394h-5.155
				v-5.635h5.155v-8.696L2611.68,145.459z"/>
		</g>
		<g>
			<path style="fill:#232536;" d="M2766.797,141.738c4.799,0,9.717,1.201,13.135,3.179v6.539c-3.418-2.281-8.096-3.541-12.594-3.482
				c-5.097,0-8.334,1.504-8.334,5.098c0,9.058,23.984,5.4,23.984,20.391c0,8.814-7.496,11.876-15.893,11.812
				c-5.637,0-10.732-1.318-14.869-3.657v-6.714c4.556,2.939,9.594,4.135,14.39,4.135c5.4,0,9.414-1.26,9.414-5.215
				c0-9.717-23.985-5.756-23.985-20.63C2752.045,145.459,2758.882,141.738,2766.797,141.738z"/>
			<path style="fill:#232536;" d="M2801.597,154.932c11.455,0,15.415,9.233,13.555,17.573h-21.65
				c0.723,5.156,5.758,7.314,11.034,7.314c3.478,0,6.656-0.84,9.116-2.041v5.518c-2.642,1.26-6.298,1.978-10.312,1.978
				c-8.818,0-16.313-5.034-16.313-15.171C2787.026,159.668,2794.941,154.932,2801.597,154.932z M2801.899,160.269
				c-4.321,0-8.218,2.578-8.458,7.437h15.952C2809.755,165.186,2808.193,160.269,2801.899,160.269z"/>
			<path style="fill:#232536;" d="M2839.512,155.112v6.294c-5.152-0.718-9.653,1.563-11.393,5.64v17.451h-6.415v-28.784h5.698v4.736
				C2829.619,156.909,2834.296,154.633,2839.512,155.112z"/>
			<path style="fill:#232536;" d="M2872.51,155.713l-12.354,28.784h-6.776l-12.29-28.784h6.954l8.754,21.826l8.696-21.826H2872.51z"
				/>
			<path style="fill:#232536;" d="M2880.562,150.195c-2.1,0-3.96-1.201-3.96-3.838c0-2.519,1.86-3.779,3.96-3.779
				c2.099,0,3.9,1.26,3.9,3.779C2884.462,148.994,2882.66,150.195,2880.562,150.195z M2877.324,184.497v-28.784h6.416v28.784
				H2877.324z"/>
			<path style="fill:#232536;" d="M2905.996,154.932c3.237,0,6.357,0.718,8.872,2.222v5.874c-2.094-1.499-5.034-2.397-7.974-2.397
				c-5.097,0-10.254,2.695-10.254,9.473c0,6.538,4.975,9.478,10.136,9.478c3.058,0,6.113-0.904,8.396-2.222v5.938
				c-2.759,1.318-5.875,1.978-9.537,1.978c-7.676,0-15.527-4.678-15.527-14.932C2890.107,159.609,2898.32,154.932,2905.996,154.932z
				"/>
			<path style="fill:#232536;" d="M2933.897,154.932c11.454,0,15.409,9.233,13.549,17.573h-21.646
				c0.723,5.156,5.757,7.314,11.034,7.314c3.478,0,6.657-0.84,9.112-2.041v5.518c-2.638,1.26-6.294,1.978-10.313,1.978
				c-8.813,0-16.309-5.034-16.309-15.171C2919.326,159.668,2927.24,154.932,2933.897,154.932z M2934.199,160.269
				c-4.321,0-8.218,2.578-8.457,7.437h15.952C2942.051,165.186,2940.493,160.269,2934.199,160.269z"/>
			<path style="fill:#232536;" d="M2963.955,154.932c3.96,0,7.559,1.021,10.376,2.461v5.635c-2.397-1.621-6.533-2.817-9.956-2.817
				c-2.574,0-5.337,0.781-5.337,3.115c0,5.581,17.334,3.003,17.334,13.496c0,6.357-5.879,8.452-12.417,8.452
				c-4.194,0-8.452-1.016-11.269-2.759v-5.693c2.997,1.977,7.372,3.057,10.971,3.057s6.24-0.601,6.24-2.939
				c0-5.336-17.394-3.115-17.394-13.433C2952.504,157.212,2958.262,154.932,2963.955,154.932z"/>
		</g>
		<g>
			<path style="fill:#232536;" d="M3127.949,141.738c4.198,0,8.335,0.962,11.934,2.758v6.655c-2.939-2.036-6.836-3.114-10.792-3.114
				c-8.036,0-16.371,4.736-16.435,15.83c0,10.313,8.521,15.112,16.554,15.112c4.315,0,8.217-1.138,10.971-3.237v6.772
				c-3.535,1.743-7.735,2.759-12.168,2.759c-10.854,0-22.373-7.075-22.31-21.406
				C3105.703,148.936,3116.914,141.738,3127.949,141.738z"/>
			<path style="fill:#232536;" d="M3159.692,154.932c8.096,0,15.591,5.22,15.591,15.171c0,9.956-7.495,15.171-15.591,15.171
				c-8.037,0-15.592-5.215-15.592-15.171C3144.101,160.151,3151.655,154.932,3159.692,154.932z M3159.692,160.811
				c-5.396,0-9.117,3.658-9.117,9.292c0,5.64,3.722,9.297,9.117,9.297c5.337,0,9.057-3.657,9.057-9.297
				C3168.749,164.468,3165.029,160.811,3159.692,160.811z"/>
			<path style="fill:#232536;" d="M3197.25,154.932c7.257,0,11.876,4.917,11.876,11.753v17.813h-6.416v-16.973
				c0-4.678-2.882-6.895-6.719-6.895c-3.658,0-6.417,2.456-8.032,4.795v19.072h-6.416v-28.784h5.693v3.955
				C3189.336,157.153,3192.877,154.932,3197.25,154.932z"/>
			<path style="fill:#232536;" d="M3225.034,145.459v10.254h10.435v5.635h-10.435v13.193c0,3.779,1.743,5.039,5.459,5.039
				c2.1,0,4.019-0.42,5.815-1.142v5.517c-2.158,0.782-4.917,1.26-7.735,1.26c-5.575,0-9.896-2.759-9.896-9.473v-14.394h-5.155
				v-5.635h5.155v-8.696L3225.034,145.459z"/>
			<path style="fill:#232536;" d="M3268.164,179.936c0.659,0,1.323-0.176,1.919-0.356v4.614c-1.196,0.484-2.638,0.723-4.077,0.723
				c-2.638,0-4.736-1.021-5.758-3.359c-2.816,2.28-6.357,3.715-10.854,3.715c-5.215,0-10.073-2.876-10.073-8.813
				c0-7.378,6.836-9.653,12.832-9.653c2.46,0,5.215,0.357,7.495,0.84v-1.02c0-3.599-2.636-6.118-7.553-6.118
				c-4.259,0-7.799,1.079-10.377,2.222v-5.879c2.279-0.781,6.416-1.919,11.034-1.919c8.155,0,13.311,3.896,13.311,12.593v10.317
				C3266.063,179.458,3267.026,179.936,3268.164,179.936z M3245.917,176.04c0,2.817,2.521,4.258,5.396,4.258
				c3.057,0,6.055-1.138,8.335-3.418v-4.859c-1.738-0.355-4.2-0.717-6.236-0.717C3249.756,171.304,3245.917,172.441,3245.917,176.04
				z"/>
			<path style="fill:#232536;" d="M3288.632,154.932c3.239,0,6.358,0.718,8.874,2.222v5.874c-2.102-1.499-5.035-2.397-7.975-2.397
				c-5.098,0-10.254,2.695-10.254,9.473c0,6.538,4.976,9.478,10.132,9.478c3.062,0,6.118-0.904,8.398-2.222v5.938
				c-2.759,1.318-5.879,1.978-9.537,1.978c-7.675,0-15.531-4.678-15.531-14.932C3272.739,159.609,3280.957,154.932,3288.632,154.932
				z"/>
			<path style="fill:#232536;" d="M3312.514,145.459v10.254h10.436v5.635h-10.436v13.193c0,3.779,1.739,5.039,5.455,5.039
				c2.1,0,4.019-0.42,5.815-1.142v5.517c-2.153,0.782-4.917,1.26-7.733,1.26c-5.577,0-9.893-2.759-9.893-9.473v-14.394h-5.157
				v-5.635h5.157v-8.696L3312.514,145.459z"/>
		</g>
		<path style="fill:#232536;" d="M3687.5,229.18h-175.001c-34.521,0-62.5-27.983-62.5-62.5l0,0c0-34.519,27.979-62.5,62.5-62.5
			H3687.5c34.516,0,62.5,27.981,62.5,62.5l0,0C3750,201.196,3722.016,229.18,3687.5,229.18z"/>
		<g>
			<path style="fill:#FFFFFF;" d="M3512.753,141.738c4.796,0,9.714,1.201,13.132,3.179v6.539c-3.418-2.281-8.097-3.541-12.594-3.482
				c-5.098,0-8.335,1.504-8.335,5.098c0,9.058,23.985,5.4,23.985,20.391c0,8.814-7.496,11.876-15.891,11.812
				c-5.639,0-10.736-1.318-14.871-3.657v-6.714c4.56,2.939,9.594,4.135,14.395,4.135c5.395,0,9.412-1.26,9.412-5.215
				c0-9.717-23.989-5.756-23.989-20.63C3497.997,145.459,3504.833,141.738,3512.753,141.738z"/>
			<path style="fill:#FFFFFF;" d="M3538.134,150.195c-2.099,0-3.954-1.201-3.954-3.838c0-2.519,1.855-3.779,3.954-3.779
				c2.101,0,3.902,1.26,3.902,3.779C3542.036,148.994,3540.234,150.195,3538.134,150.195z M3534.896,184.497v-28.784h6.417v28.784
				H3534.896z"/>
			<path style="fill:#FFFFFF;" d="M3561.948,154.932c5.4,0,8.817,2.52,11.034,5.278v-4.497h5.758v28.423
				c0,10.376-7.915,14.331-16.127,14.331c-4.381,0-8.458-0.957-11.876-2.695v-5.879c3.296,1.919,7.134,2.939,11.034,2.939
				c5.699,0,10.552-2.041,10.552-8.516v-3.657c-1.976,2.339-5.336,4.614-10.375,4.614c-8.691,0-14.268-6.894-14.268-15.171
				C3547.681,161.826,3553.257,154.932,3561.948,154.932z M3563.09,160.571c-5.155,0-8.935,3.897-8.935,9.531
				c0,5.64,3.779,9.536,8.935,9.536c4.498,0,7.794-2.7,9.176-5.635v-7.437C3570.884,163.447,3567.588,160.571,3563.09,160.571z"/>
			<path style="fill:#FFFFFF;" d="M3602.51,154.932c7.256,0,11.875,4.917,11.875,11.753v17.813h-6.421v-16.973
				c0-4.678-2.876-6.895-6.713-6.895c-3.658,0-6.417,2.456-8.039,4.795v19.072h-6.415v-28.784h5.697v3.955
				C3594.594,157.153,3598.129,154.932,3602.51,154.932z"/>
			<path style="fill:#FFFFFF;" d="M3663.521,155.713v28.784h-5.698v-3.96c-2.1,2.52-5.635,4.736-10.016,4.736
				c-7.612,0-11.869-4.917-11.869-11.753v-17.808h6.416v16.968c0,4.678,2.457,6.899,6.714,6.899c3.657,0,6.416-2.461,8.038-4.8
				v-19.067H3663.521z"/>
			<path style="fill:#FFFFFF;" d="M3688.363,154.932c8.639,0,14.273,6.895,14.273,15.171c0,8.277-5.635,15.171-14.273,15.171
				c-5.033,0-8.393-2.217-10.369-4.497v16.914h-6.423v-41.977h5.699v4.497C3679.551,157.451,3682.969,154.932,3688.363,154.932z
				 M3687.168,160.571c-4.438,0-7.798,2.876-9.174,5.996v7.017c1.376,3.174,4.736,6.055,9.174,6.055
				c5.215,0,8.937-3.896,8.937-9.536C3696.104,164.468,3692.383,160.571,3687.168,160.571z"/>
		</g>
		<g>
			<g>
				<path style="fill:#232536;" d="M438.256,783.213l-38.877,125.986h-29.335l-25.015-85.85l-25.02,85.85h-29.336l-38.874-125.986
					h29.158l25.015,95.21l27.178-95.21h23.757l27.175,95.21l25.02-95.21H438.256z"/>
				<path style="fill:#232536;" d="M475.715,783.213v47.515c6.299-5.938,15.117-10.439,25.916-10.439
					c22.678,0,35.098,15.478,35.098,35.458v53.452h-25.02v-50.215c0-11.699-7.017-17.1-16.738-17.1
					c-8.818,0-15.656,5.762-19.255,10.982v56.333h-25.017V783.213H475.715z"/>
				<path style="fill:#232536;" d="M616.65,822.808h25.918l-38.335,96.831c-9.722,24.117-23.218,31.494-37.256,31.494
					c-4.502,0-8.999-0.898-13.501-1.978v-20.698c3.423,0.718,6.841,1.26,10.259,1.26c8.999,0,15.84-6.118,20.518-18.901l0.181-0.356
					l-40.854-87.651h26.458l25.198,58.315L616.65,822.808z"/>
				<path style="fill:#232536;" d="M780.803,783.213v125.986h-21.956v-12.598c-5.582,7.739-15.479,15.118-31.318,15.118
					c-27.534,0-42.295-22.139-42.295-45.713c0-23.579,14.761-45.717,42.295-45.717c13.679,0,22.856,5.581,28.438,11.699v-48.774
					H780.803z M733.47,841.348c-14.217,0-22.679,11.157-22.679,24.658c0,13.496,8.462,24.654,22.679,24.654
					c10.978,0,19.079-6.837,22.497-14.4v-20.513C752.549,848.184,744.448,841.348,733.47,841.348z"/>
				<path style="fill:#232536;" d="M844.888,820.289c25.198,0,47.695,15.478,47.695,45.717c0,30.234-22.498,45.713-47.695,45.713
					c-25.015,0-47.692-15.479-47.692-45.713C797.195,835.767,819.873,820.289,844.888,820.289z M844.888,842.607
					c-14.219,0-22.137,10.078-22.137,23.398c0,13.315,7.918,23.393,22.137,23.393c14.399,0,22.319-10.078,22.319-23.393
					C867.207,852.685,859.287,842.607,844.888,842.607z"/>
				<path style="fill:#232536;" d="M1079.236,822.808l-27.717,86.392h-26.455l-17.099-56.333l-17.098,56.333h-26.635l-27.718-86.392
					h26.636l15.659,59.214l17.278-59.214h23.757l17.097,59.214l15.837-59.214H1079.236z"/>
				<path style="fill:#232536;" d="M1129.287,820.289c35.815,0,47.334,28.256,41.575,53.813h-60.833
					c2.881,12.598,16.199,17.817,30.415,17.817c9.9,0,18.721-1.977,26.099-5.22v19.619c-8.101,3.418-18.718,5.401-31.675,5.401
					c-27.358,0-50.034-15.66-50.034-45.713C1084.834,833.428,1109.849,820.289,1129.287,820.289z M1130.186,839.365
					c-10.617,0-19.976,6.66-20.337,18.54h38.516C1149.265,851.962,1145.844,839.365,1130.186,839.365z"/>
				<path style="fill:#232536;" d="M345.566,1002.808v86.391h-22.134v-10.981c-6.66,7.74-16.56,13.501-28.799,13.501
					c-23.396,0-35.095-15.479-35.095-35.459v-53.452h25.017v50.215c0,11.518,6.299,17.1,16.558,17.1
					c8.999,0,15.659-5.761,19.438-10.981v-56.333H345.566z"/>
				<path style="fill:#232536;" d="M399.033,1000.288c12.241,0,23.037,3.062,31.858,7.378v20.518
					c-7.38-5.039-19.978-8.818-30.237-8.818c-5.581,0-12.059,1.621-12.059,6.841c0,14.399,48.772,7.197,48.772,38.877
					c0,20.337-18.535,26.636-39.233,26.636c-13.14,0-25.557-2.88-34.375-8.101v-20.698c9.358,6.123,22.495,9.18,32.935,9.18
					c9.18,0,15.117-1.621,15.117-6.479c0-13.857-48.771-7.739-48.771-38.696C363.04,1006.948,380.856,1000.288,399.033,1000.288z"/>
				<path style="fill:#232536;" d="M492.27,1000.288c35.816,0,47.335,28.257,41.577,53.813h-60.835
					c2.881,12.598,16.201,17.817,30.418,17.817c9.899,0,18.718-1.978,26.096-5.22v19.619c-8.099,3.418-18.716,5.4-31.675,5.4
					c-27.358,0-50.034-15.659-50.034-45.713C447.817,1013.428,472.834,1000.288,492.27,1000.288z M493.172,1019.365
					c-10.618,0-19.979,6.66-20.338,18.54h38.514C512.251,1031.963,508.829,1019.365,493.172,1019.365z"/>
				<path style="fill:#232536;" d="M603.691,988.413c-7.739,0-14.577-4.321-14.577-14.219c0-9.722,6.838-14.038,14.577-14.038
					c7.92,0,14.758,4.316,14.758,14.038C618.45,984.092,611.612,988.413,603.691,988.413z M591.274,1089.199v-86.391h25.015v86.391
					H591.274z"/>
				<path style="fill:#232536;" d="M669.209,971.675v31.133h27.356v21.06h-27.356v33.833c0,8.999,4.499,12.959,13.857,12.959
					c5.762,0,10.621-0.899,15.66-2.881v20.161c-6.66,2.339-14.58,3.779-23.217,3.779c-16.739,0-31.136-7.739-31.136-29.155v-38.696
					h-14.578v-21.06h14.578v-25.195L669.209,971.675z"/>
				<path style="fill:#232536;" d="M731.309,1047.803c0-22.856,28.438-35.996,28.438-49.854c0-10.078-8.638-13.496-20.517-13.496
					c-11.158,0-22.318,4.136-30.416,8.818v-23.76c9.358-5.039,21.416-8.818,34.915-8.818c22.678,0,43.015,8.637,43.015,31.499
					c0,25.015-31.675,38.872-31.675,55.61H731.309z M743.369,1091.538c-8.1,0-15.298-4.678-15.298-14.761
					c0-10.078,7.197-14.756,15.298-14.756c8.099,0,15.117,4.678,15.117,14.756C758.486,1086.86,751.468,1091.538,743.369,1091.538z"
					/>
			</g>
		</g>
		<g>
			<path style="fill:#363957;" d="M260.554,1209.858v41.978h-5.037v-41.978H260.554z"/>
			<path style="fill:#363957;" d="M276.753,1212.915v10.137h11.514v4.438h-11.514v14.868c0,4.379,1.98,5.698,6.177,5.698
				c2.28,0,4.438-0.542,6.357-1.319v4.439c-2.158,0.776-4.976,1.318-7.734,1.318c-5.576,0-9.536-2.998-9.536-9.296v-15.708h-5.396
				v-4.438h5.396v-8.936L276.753,1212.915z"/>
			<path style="fill:#363957;" d="M312.153,1216.934c-1.678,0-3.115-1.021-3.115-3.057c0-1.982,1.438-3.062,3.115-3.062
				c1.68,0,3.121,1.079,3.121,3.062C315.274,1215.913,313.833,1216.934,312.153,1216.934z M309.756,1251.836v-28.784h4.8v28.784
				H309.756z"/>
			<path style="fill:#363957;" d="M332.852,1222.329c3.837,0,7.495,1.02,10.195,2.461v4.556c-2.397-1.558-6.416-2.696-9.895-2.696
				c-3.118,0-6.416,1.016-6.416,3.838c0,6.236,18.289,3.594,18.289,13.97c0,5.996-5.634,8.096-11.873,8.096
				c-4.077,0-8.455-1.079-11.155-2.817v-4.678c2.939,1.978,7.317,3.057,10.915,3.057c4.078,0,7.317-0.659,7.317-3.535
				c0-6.06-18.35-3.657-18.35-13.975C321.88,1224.668,327.456,1222.329,332.852,1222.329z"/>
			<path style="fill:#363957;" d="M392.061,1248.057c0.72,0,1.499-0.181,2.218-0.42v3.896c-1.14,0.42-2.399,0.659-3.596,0.659
				c-2.339,0-4.439-0.957-5.278-3.477c-2.879,2.397-6.539,3.838-11.216,3.838c-5.095,0-10.132-2.7-10.132-8.755
				c0-7.437,6.836-9.717,13.013-9.717c2.52,0,5.576,0.361,7.974,0.903v-1.021c0-4.317-2.937-7.197-8.213-7.197
				c-4.438,0-7.979,1.079-10.496,2.158v-4.678c2.278-0.776,6.238-1.919,10.975-1.919c7.676,0,12.534,4.199,12.534,12.236v11.274
				C389.844,1247.578,390.801,1248.057,392.061,1248.057z M375.21,1248.418c3.658,0,7.317-1.5,9.834-4.199v-5.278
				c-2.036-0.42-4.976-0.84-7.314-0.84c-4.199,0-8.755,1.26-8.755,5.459C368.975,1246.918,372.031,1248.418,375.21,1248.418z"/>
			<path style="fill:#363957;" d="M417.573,1208.057v43.779h-4.799v-43.779H417.573z"/>
			<path style="fill:#363957;" d="M439.946,1222.329c7.856,0,15.351,5.278,15.351,15.112s-7.495,15.112-15.351,15.112
				c-7.795,0-15.351-5.278-15.351-15.112S432.151,1222.329,439.946,1222.329z M439.946,1226.89c-5.877,0-10.554,3.896-10.554,10.552
				s4.677,10.557,10.554,10.557c5.877,0,10.554-3.901,10.554-10.557S445.823,1226.89,439.946,1226.89z"/>
			<path style="fill:#363957;" d="M476.904,1222.329c6.897,0,11.995,4.741,11.995,11.753v17.754h-4.798v-17.153
				c0-5.396-3.298-7.915-7.734-7.915c-4.258,0-7.436,2.88-9.355,5.757v19.312h-4.8v-28.784h4.319v4.257
				C468.449,1224.79,472.288,1222.329,476.904,1222.329z"/>
			<path style="fill:#363957;" d="M509.846,1222.329c5.518,0,9.055,2.578,11.633,5.518v-4.794h4.317v28.784
				c0,9.893-7.735,13.911-15.708,13.911c-4.257,0-8.276-0.962-11.694-2.7v-4.678c3.418,1.919,7.133,2.939,11.093,2.939
				c6.116,0,11.573-2.339,11.514-9.473v-4.438c-2.1,2.578-5.637,5.156-11.155,5.156c-8.215,0-14.393-6.475-14.393-15.112
				C495.454,1228.809,501.631,1222.329,509.846,1222.329z M510.386,1226.768c-5.576,0-10.134,4.077-10.134,10.674
				s4.558,10.674,10.134,10.674c5.156,0,8.994-3.115,10.615-6.475v-7.798C519.379,1230.127,515.542,1226.768,510.386,1226.768z"/>
			<path style="fill:#363957;" d="M561.985,1222.329c11.094,0,15.173,9.058,13.371,17.212h-22.905
				c0.599,6.055,6.054,8.574,11.872,8.574c3.538,0,7.015-0.957,9.476-2.339v4.678c-2.639,1.382-6.416,2.1-10.195,2.1
				c-8.516,0-15.952-4.858-15.952-15.112C547.651,1227.368,555.149,1222.329,561.985,1222.329z M562.285,1226.768
				c-4.917,0-9.475,2.939-9.834,8.574h18.647C571.519,1232.285,569.6,1226.768,562.285,1226.768z"/>
			<path style="fill:#363957;" d="M591.807,1222.329c3.838,0,7.495,1.02,10.195,2.461v4.556c-2.4-1.558-6.416-2.696-9.898-2.696
				c-3.115,0-6.416,1.016-6.416,3.838c0,6.236,18.291,3.594,18.291,13.97c0,5.996-5.636,8.096-11.875,8.096
				c-4.077,0-8.453-1.079-11.152-2.817v-4.678c2.94,1.978,7.315,3.057,10.913,3.057c4.077,0,7.316-0.659,7.316-3.535
				c0-6.06-18.349-3.657-18.349-13.975C580.833,1224.668,586.409,1222.329,591.807,1222.329z"/>
			<path style="fill:#363957;" d="M617.127,1212.915v10.137h11.513v4.438h-11.513v14.868c0,4.379,1.979,5.698,6.176,5.698
				c2.277,0,4.436-0.542,6.355-1.319v4.439c-2.158,0.776-4.976,1.318-7.734,1.318c-5.577,0-9.537-2.998-9.537-9.296v-15.708h-5.396
				v-4.438h5.396v-8.936L617.127,1212.915z"/>
			<path style="fill:#363957;" d="M660.676,1248.057c0.72,0,1.5-0.181,2.219-0.42v3.896c-1.14,0.42-2.4,0.659-3.599,0.659
				c-2.339,0-4.438-0.957-5.279-3.477c-2.876,2.397-6.535,3.838-11.213,3.838c-5.095,0-10.134-2.7-10.134-8.755
				c0-7.437,6.836-9.717,13.012-9.717c2.52,0,5.576,0.361,7.976,0.903v-1.021c0-4.317-2.937-7.197-8.215-7.197
				c-4.438,0-7.976,1.079-10.493,2.158v-4.678c2.278-0.776,6.235-1.919,10.972-1.919c7.676,0,12.534,4.199,12.534,12.236v11.274
				C658.457,1247.578,659.416,1248.057,660.676,1248.057z M643.823,1248.418c3.66,0,7.32-1.5,9.837-4.199v-5.278
				c-2.039-0.42-4.978-0.84-7.317-0.84c-4.196,0-8.755,1.26-8.755,5.459C637.588,1246.918,640.647,1248.418,643.823,1248.418z"/>
			<path style="fill:#363957;" d="M672.505,1209.858v17.51c2.1-2.461,5.64-5.039,11.157-5.039c8.213,0,14.39,6.479,14.39,15.112
				c0,8.638-6.176,15.112-14.39,15.112c-5.517,0-9.058-2.578-11.635-5.518v4.8h-4.317v-41.978H672.505z M683.12,1226.768
				c-5.156,0-8.994,3.359-10.615,7.075v7.197c1.621,3.721,5.459,7.075,10.615,7.075c5.576,0,10.137-4.077,10.137-10.674
				S688.696,1226.768,683.12,1226.768z"/>
			<path style="fill:#363957;" d="M709.888,1208.057v43.779h-4.8v-43.779H709.888z"/>
			<path style="fill:#363957;" d="M721.407,1216.934c-1.68,0-3.118-1.021-3.118-3.057c0-1.982,1.438-3.062,3.118-3.062
				c1.679,0,3.12,1.079,3.12,3.062C724.526,1215.913,723.086,1216.934,721.407,1216.934z M719.009,1251.836v-28.784h4.795v28.784
				H719.009z"/>
			<path style="fill:#363957;" d="M742.105,1222.329c3.837,0,7.494,1.02,10.192,2.461v4.556c-2.4-1.558-6.419-2.696-9.895-2.696
				c-3.118,0-6.417,1.016-6.417,3.838c0,6.236,18.292,3.594,18.292,13.97c0,5.996-5.64,8.096-11.875,8.096
				c-4.078,0-8.455-1.079-11.153-2.817v-4.678c2.937,1.978,7.315,3.057,10.914,3.057c4.077,0,7.314-0.659,7.314-3.535
				c0-6.06-18.35-3.657-18.35-13.975C731.128,1224.668,736.704,1222.329,742.105,1222.329z"/>
			<path style="fill:#363957;" d="M765.565,1209.858v16.851c2.038-2.28,5.637-4.38,9.894-4.38c6.895,0,11.992,4.741,11.992,11.753
				v17.754h-4.795v-17.153c0-5.396-3.301-7.915-7.737-7.915c-4.258,0-7.436,2.88-9.355,5.757v19.312h-4.798v-41.978H765.565z"/>
			<path style="fill:#363957;" d="M808.34,1222.329c11.094,0,15.171,9.058,13.374,17.212h-22.91c0.6,6.055,6.06,8.574,11.875,8.574
				c3.538,0,7.017-0.957,9.475-2.339v4.678c-2.639,1.382-6.418,2.1-10.195,2.1c-8.513,0-15.95-4.858-15.95-15.112
				C794.009,1227.368,801.504,1222.329,808.34,1222.329z M808.64,1226.768c-4.919,0-9.475,2.939-9.836,8.574h18.652
				C817.876,1232.285,815.958,1226.768,808.64,1226.768z"/>
			<path style="fill:#363957;" d="M857.231,1209.858v41.978h-4.318v-4.8c-2.579,2.939-6.116,5.518-11.633,5.518
				c-8.216,0-14.393-6.475-14.393-15.112c0-8.633,6.177-15.112,14.393-15.112c5.517,0,9.054,2.578,11.152,5.039v-17.51H857.231z
				 M841.819,1226.768c-5.577,0-10.134,4.077-10.134,10.674s4.558,10.674,10.134,10.674c5.159,0,8.997-3.354,10.613-7.075v-7.197
				C850.815,1230.127,846.977,1226.768,841.819,1226.768z"/>
			<path style="fill:#363957;" d="M883.284,1251.836v-24.346h-5.398v-4.438h5.398v-3.482c0-8.032,5.159-10.434,10.193-10.434
				c2.642,0,5.22,0.542,7.197,1.323v4.434c-1.618-0.776-3.897-1.318-6.055-1.318c-3.482,0-6.538,0.903-6.538,6.177v3.301h10.793
				v4.438h-10.793v24.346H883.284z"/>
			<path style="fill:#363957;" d="M929.234,1248.057c0.717,0,1.499-0.181,2.216-0.42v3.896c-1.138,0.42-2.398,0.659-3.599,0.659
				c-2.338,0-4.439-0.957-5.276-3.477c-2.879,2.397-6.536,3.838-11.213,3.838c-5.098,0-10.137-2.7-10.137-8.755
				c0-7.437,6.836-9.717,13.013-9.717c2.52,0,5.579,0.361,7.979,0.903v-1.021c0-4.317-2.94-7.197-8.218-7.197
				c-4.436,0-7.974,1.079-10.493,2.158v-4.678c2.28-0.776,6.235-1.919,10.974-1.919c7.676,0,12.532,4.199,12.532,12.236v11.274
				C927.012,1247.578,927.974,1248.057,929.234,1248.057z M912.382,1248.418c3.658,0,7.314-1.5,9.835-4.199v-5.278
				c-2.042-0.42-4.978-0.84-7.317-0.84c-4.197,0-8.757,1.26-8.757,5.459C906.143,1246.918,909.204,1248.418,912.382,1248.418z"/>
			<path style="fill:#363957;" d="M949.878,1222.329c3.237,0,6.416,0.723,8.875,2.339v4.678c-2.159-1.68-5.218-2.579-8.274-2.579
				c-5.579,0-11.397,3.121-11.397,10.674c0,7.378,5.64,10.674,11.274,10.674c3.12,0,6.299-0.898,8.696-2.339v4.799
				c-2.7,1.319-5.757,1.978-9.355,1.978c-7.554,0-15.41-4.736-15.41-14.99C934.287,1227.07,942.383,1222.329,949.878,1222.329z"/>
			<path style="fill:#363957;" d="M972.5,1212.915v10.137h11.514v4.438H972.5v14.868c0,4.379,1.98,5.698,6.177,5.698
				c2.28,0,4.438-0.542,6.357-1.319v4.439c-2.159,0.776-4.976,1.318-7.734,1.318c-5.576,0-9.536-2.998-9.536-9.296v-15.708h-5.396
				v-4.438h5.396v-8.936L972.5,1212.915z"/>
			<path style="fill:#363957;" d="M1010.84,1212.915v10.137h11.513v4.438h-11.513v14.868c0,4.379,1.979,5.698,6.176,5.698
				c2.28,0,4.439-0.542,6.357-1.319v4.439c-2.158,0.776-4.976,1.318-7.734,1.318c-5.576,0-9.536-2.998-9.536-9.296v-15.708h-5.395
				v-4.438h5.395v-8.936L1010.84,1212.915z"/>
			<path style="fill:#363957;" d="M1033.582,1209.858v16.851c2.038-2.28,5.636-4.38,9.895-4.38c6.895,0,11.992,4.741,11.992,11.753
				v17.754h-4.795v-17.153c0-5.396-3.301-7.915-7.737-7.915c-4.258,0-7.437,2.88-9.355,5.757v19.312h-4.797v-41.978H1033.582z"/>
			<path style="fill:#363957;" d="M1089.609,1248.057c0.72,0,1.499-0.181,2.219-0.42v3.896c-1.14,0.42-2.4,0.659-3.596,0.659
				c-2.339,0-4.438-0.957-5.278-3.477c-2.879,2.397-6.538,3.838-11.216,3.838c-5.095,0-10.131-2.7-10.131-8.755
				c0-7.437,6.835-9.717,13.012-9.717c2.52,0,5.577,0.361,7.974,0.903v-1.021c0-4.317-2.937-7.197-8.213-7.197
				c-4.438,0-7.979,1.079-10.496,2.158v-4.678c2.278-0.776,6.238-1.919,10.975-1.919c7.675,0,12.534,4.199,12.534,12.236v11.274
				C1087.393,1247.578,1088.35,1248.057,1089.609,1248.057z M1072.759,1248.418c3.657,0,7.316-1.5,9.834-4.199v-5.278
				c-2.036-0.42-4.976-0.84-7.314-0.84c-4.199,0-8.755,1.26-8.755,5.459C1066.523,1246.918,1069.58,1248.418,1072.759,1248.418z"/>
			<path style="fill:#363957;" d="M1103.062,1212.915v10.137h11.513v4.438h-11.513v14.868c0,4.379,1.977,5.698,6.176,5.698
				c2.278,0,4.436-0.542,6.354-1.319v4.439c-2.158,0.776-4.978,1.318-7.736,1.318c-5.576,0-9.534-2.998-9.534-9.296v-15.708h-5.397
				v-4.438h5.397v-8.936L1103.062,1212.915z"/>
			<path style="fill:#363957;" d="M1161.548,1248.057c0.72,0,1.499-0.181,2.22-0.42v3.896c-1.141,0.42-2.4,0.659-3.597,0.659
				c-2.339,0-4.438-0.957-5.278-3.477c-2.878,2.397-6.538,3.838-11.216,3.838c-5.095,0-10.132-2.7-10.132-8.755
				c0-7.437,6.836-9.717,13.013-9.717c2.52,0,5.576,0.361,7.974,0.903v-1.021c0-4.317-2.937-7.197-8.213-7.197
				c-4.438,0-7.979,1.079-10.496,2.158v-4.678c2.278-0.776,6.238-1.919,10.974-1.919c7.676,0,12.535,4.199,12.535,12.236v11.274
				C1159.332,1247.578,1160.288,1248.057,1161.548,1248.057z M1144.697,1248.418c3.658,0,7.317-1.5,9.834-4.199v-5.278
				c-2.036-0.42-4.976-0.84-7.314-0.84c-4.199,0-8.755,1.26-8.755,5.459C1138.462,1246.918,1141.519,1248.418,1144.697,1248.418z"/>
			<path style="fill:#363957;" d="M1198.872,1222.451v4.795c-5.637-0.66-10.195,2.041-11.934,6.66v17.93h-4.797v-28.784h4.318v5.097
				C1188.738,1224.37,1193.835,1222.031,1198.872,1222.451z"/>
			<path style="fill:#363957;" d="M1215.376,1222.329c11.094,0,15.171,9.058,13.374,17.212h-22.911
				c0.601,6.055,6.06,8.574,11.875,8.574c3.537,0,7.017-0.957,9.475-2.339v4.678c-2.639,1.382-6.418,2.1-10.195,2.1
				c-8.513,0-15.95-4.858-15.95-15.112C1201.045,1227.368,1208.541,1222.329,1215.376,1222.329z M1215.676,1226.768
				c-4.919,0-9.476,2.939-9.837,8.574h18.653C1224.912,1232.285,1222.993,1226.768,1215.676,1226.768z"/>
			<path style="fill:#363957;" d="M1261.509,1248.057c0.717,0,1.499-0.181,2.217-0.42v3.896c-1.138,0.42-2.397,0.659-3.599,0.659
				c-2.338,0-4.438-0.957-5.276-3.477c-2.878,2.397-6.536,3.838-11.213,3.838c-5.098,0-10.137-2.7-10.137-8.755
				c0-7.437,6.836-9.717,13.013-9.717c2.52,0,5.579,0.361,7.979,0.903v-1.021c0-4.317-2.94-7.197-8.218-7.197
				c-4.436,0-7.974,1.079-10.493,2.158v-4.678c2.28-0.776,6.235-1.919,10.974-1.919c7.676,0,12.532,4.199,12.532,12.236v11.274
				C1259.287,1247.578,1260.249,1248.057,1261.509,1248.057z M1244.658,1248.418c3.657,0,7.315-1.5,9.835-4.199v-5.278
				c-2.042-0.42-4.978-0.84-7.317-0.84c-4.197,0-8.757,1.26-8.757,5.459C1238.418,1246.918,1241.479,1248.418,1244.658,1248.418z"/>
			<path style="fill:#363957;" d="M1296.904,1209.858v41.978h-4.316v-4.8c-2.578,2.939-6.119,5.518-11.636,5.518
				c-8.213,0-14.39-6.475-14.39-15.112c0-8.633,6.177-15.112,14.39-15.112c5.517,0,9.058,2.578,11.154,5.039v-17.51H1296.904z
				 M1281.494,1226.768c-5.576,0-10.137,4.077-10.137,10.674s4.561,10.674,10.137,10.674c5.156,0,8.994-3.354,10.612-7.075v-7.197
				C1290.488,1230.127,1286.65,1226.768,1281.494,1226.768z"/>
			<path style="fill:#363957;" d="M1318.154,1222.329c11.093,0,15.171,9.058,13.374,17.212h-22.911
				c0.601,6.055,6.061,8.574,11.875,8.574c3.537,0,7.017-0.957,9.476-2.339v4.678c-2.64,1.382-6.419,2.1-10.195,2.1
				c-8.514,0-15.95-4.858-15.95-15.112C1303.823,1227.368,1311.318,1222.329,1318.154,1222.329z M1318.455,1226.768
				c-4.919,0-9.476,2.939-9.837,8.574h18.653C1327.69,1232.285,1325.771,1226.768,1318.455,1226.768z"/>
			<path style="fill:#363957;" d="M1355.41,1222.451v4.795c-5.637-0.66-10.195,2.041-11.934,6.66v17.93h-4.797v-28.784h4.319v5.097
				C1345.275,1224.37,1350.374,1222.031,1355.41,1222.451z"/>
			<path style="fill:#363957;" d="M1415.278,1223.052l-9.836,28.784h-5.217l-7.795-22.251l-7.795,22.251h-5.217l-9.836-28.784h5.04
				l7.436,23.505l8.213-23.505h4.318l8.216,23.505l7.436-23.505H1415.278z"/>
			<path style="fill:#363957;" d="M1423.34,1216.934c-1.68,0-3.12-1.021-3.12-3.057c0-1.982,1.44-3.062,3.12-3.062
				c1.677,0,3.115,1.079,3.115,3.062C1426.455,1215.913,1425.017,1216.934,1423.34,1216.934z M1420.938,1251.836v-28.784h4.799
				v28.784H1420.938z"/>
			<path style="fill:#363957;" d="M1439.658,1208.057v43.779h-4.8v-43.779H1439.658z"/>
			<path style="fill:#363957;" d="M1453.574,1208.057v43.779h-4.795v-43.779H1453.574z"/>
			<path style="fill:#363957;" d="M259.233,1279.858v17.51c2.1-2.461,5.64-5.039,11.157-5.039c8.213,0,14.39,6.479,14.39,15.112
				c0,8.638-6.177,15.112-14.39,15.112c-5.518,0-9.058-2.577-11.636-5.518v4.8h-4.316v-41.978H259.233z M269.849,1296.768
				c-5.156,0-8.994,3.359-10.615,7.075v7.197c1.621,3.721,5.459,7.075,10.615,7.075c5.576,0,10.137-4.077,10.137-10.674
				S275.425,1296.768,269.849,1296.768z"/>
			<path style="fill:#363957;" d="M304.05,1292.329c11.094,0,15.173,9.058,13.372,17.212h-22.906
				c0.599,6.055,6.055,8.574,11.872,8.574c3.538,0,7.015-0.957,9.476-2.339v4.678c-2.64,1.382-6.416,2.1-10.195,2.1
				c-8.515,0-15.952-4.858-15.952-15.112C289.717,1297.368,297.214,1292.329,304.05,1292.329z M304.351,1296.768
				c-4.918,0-9.475,2.939-9.835,8.574h18.647C313.584,1302.285,311.665,1296.768,304.351,1296.768z"/>
			<path style="fill:#363957;" d="M367.881,1279.858v41.978h-4.316v-4.8c-2.579,2.94-6.119,5.518-11.636,5.518
				c-8.213,0-14.39-6.475-14.39-15.112c0-8.633,6.176-15.112,14.39-15.112c5.517,0,9.057,2.578,11.154,5.039v-17.51H367.881z
				 M352.471,1296.768c-5.576,0-10.137,4.077-10.137,10.674s4.561,10.674,10.137,10.674c5.156,0,8.994-3.354,10.612-7.075v-7.197
				C361.465,1300.127,357.627,1296.768,352.471,1296.768z"/>
			<path style="fill:#363957;" d="M379.297,1286.934c-1.68,0-3.12-1.021-3.12-3.057c0-1.982,1.44-3.062,3.12-3.062
				c1.677,0,3.115,1.079,3.115,3.062C382.412,1285.913,380.974,1286.934,379.297,1286.934z M376.895,1321.836v-28.784h4.8v28.784
				H376.895z"/>
			<path style="fill:#363957;" d="M399.991,1292.329c3.837,0,7.495,1.021,10.194,2.461v4.556c-2.397-1.558-6.416-2.695-9.895-2.695
				c-3.118,0-6.415,1.016-6.415,3.838c0,6.235,18.288,3.594,18.288,13.97c0,5.996-5.634,8.096-11.873,8.096
				c-4.077,0-8.455-1.079-11.155-2.817v-4.678c2.939,1.978,7.317,3.057,10.916,3.057c4.077,0,7.317-0.659,7.317-3.535
				c0-6.06-18.35-3.657-18.35-13.975C389.019,1294.668,394.595,1292.329,399.991,1292.329z"/>
			<path style="fill:#363957;" d="M425.313,1282.915v10.137h11.514v4.438h-11.514v14.868c0,4.38,1.978,5.698,6.176,5.698
				c2.278,0,4.437-0.542,6.355-1.318v4.438c-2.158,0.776-4.978,1.318-7.737,1.318c-5.576,0-9.534-2.998-9.534-9.297v-15.708h-5.398
				v-4.438h5.398v-8.936L425.313,1282.915z"/>
			<path style="fill:#363957;" d="M459.985,1292.451v4.795c-5.636-0.659-10.195,2.041-11.933,6.66v17.93h-4.797v-28.784h4.319v5.098
				C449.851,1294.37,454.948,1292.031,459.985,1292.451z"/>
			<path style="fill:#363957;" d="M490.461,1318.057c0.721,0,1.499-0.181,2.219-0.42v3.896c-1.14,0.42-2.4,0.659-3.599,0.659
				c-2.339,0-4.439-0.957-5.278-3.477c-2.876,2.397-6.536,3.838-11.214,3.838c-5.095,0-10.134-2.7-10.134-8.755
				c0-7.437,6.836-9.717,13.013-9.717c2.519,0,5.577,0.361,7.976,0.903v-1.021c0-4.316-2.936-7.197-8.215-7.197
				c-4.438,0-7.976,1.079-10.493,2.158v-4.678c2.278-0.776,6.235-1.919,10.972-1.919c7.676,0,12.534,4.199,12.534,12.236v11.274
				C488.242,1317.578,489.201,1318.057,490.461,1318.057z M473.608,1318.418c3.66,0,7.32-1.499,9.836-4.199v-5.278
				c-2.039-0.42-4.978-0.84-7.316-0.84c-4.196,0-8.754,1.26-8.754,5.459C467.374,1316.919,470.432,1318.418,473.608,1318.418z"/>
			<path style="fill:#363957;" d="M511.108,1292.329c3.237,0,6.416,0.723,8.872,2.339v4.678c-2.158-1.68-5.215-2.578-8.274-2.578
				c-5.579,0-11.394,3.12-11.394,10.674c0,7.378,5.637,10.674,11.274,10.674c3.118,0,6.296-0.898,8.696-2.339v4.8
				c-2.7,1.318-5.757,1.978-9.355,1.978c-7.559,0-15.413-4.736-15.413-14.99C495.515,1297.07,503.611,1292.329,511.108,1292.329z"/>
			<path style="fill:#363957;" d="M533.731,1282.915v10.137h11.514v4.438h-11.514v14.868c0,4.38,1.977,5.698,6.177,5.698
				c2.28,0,4.438-0.542,6.357-1.318v4.438c-2.158,0.776-4.978,1.318-7.737,1.318c-5.579,0-9.534-2.998-9.534-9.297v-15.708h-5.398
				v-4.438h5.398v-8.936L533.731,1282.915z"/>
			<path style="fill:#363957;" d="M564.028,1292.329c11.094,0,15.171,9.058,13.372,17.212h-22.908
				c0.601,6.055,6.058,8.574,11.875,8.574c3.535,0,7.017-0.957,9.472-2.339v4.678c-2.637,1.382-6.415,2.1-10.194,2.1
				c-8.513,0-15.95-4.858-15.95-15.112C549.695,1297.368,557.192,1292.329,564.028,1292.329z M564.326,1296.768
				c-4.917,0-9.473,2.939-9.834,8.574h18.65C573.562,1302.285,571.643,1296.768,564.326,1296.768z"/>
			<path style="fill:#363957;" d="M612.917,1279.858v41.978h-4.318v-4.8c-2.578,2.94-6.113,5.518-11.631,5.518
				c-8.218,0-14.395-6.475-14.395-15.112c0-8.633,6.177-15.112,14.395-15.112c5.518,0,9.053,2.578,11.152,5.039v-17.51H612.917z
				 M597.504,1296.768c-5.576,0-10.131,4.077-10.131,10.674s4.555,10.674,10.131,10.674c5.159,0,8.998-3.354,10.615-7.075v-7.197
				C606.502,1300.127,602.663,1296.768,597.504,1296.768z"/>
			<path style="fill:#363957;" d="M641.548,1279.858v17.51c2.099-2.461,5.64-5.039,11.157-5.039c8.213,0,14.39,6.479,14.39,15.112
				c0,8.638-6.177,15.112-14.39,15.112c-5.517,0-9.058-2.577-11.636-5.518v4.8h-4.316v-41.978H641.548z M652.163,1296.768
				c-5.156,0-8.994,3.359-10.615,7.075v7.197c1.621,3.721,5.459,7.075,10.615,7.075c5.576,0,10.137-4.077,10.137-10.674
				S657.739,1296.768,652.163,1296.768z"/>
			<path style="fill:#363957;" d="M694.819,1293.052h5.098l-14.151,33.101c-2.997,6.958-6.657,9.595-10.854,9.595
				c-1.021,0-2.041-0.122-3.12-0.42v-4.136c0.839,0.239,1.68,0.356,2.52,0.356c3.237,0,5.576-2.339,7.436-7.017l1.079-2.637
				l-13.672-28.843h5.098l10.854,23.325L694.819,1293.052z"/>
			<path style="fill:#363957;" d="M724.048,1282.915v10.137h11.513v4.438h-11.513v14.868c0,4.38,1.977,5.698,6.177,5.698
				c2.278,0,4.436-0.542,6.355-1.318v4.438c-2.159,0.776-4.979,1.318-7.737,1.318c-5.576,0-9.533-2.998-9.533-9.297v-15.708h-5.398
				v-4.438h5.398v-8.936L724.048,1282.915z"/>
			<path style="fill:#363957;" d="M746.787,1279.858v16.851c2.041-2.28,5.637-4.38,9.895-4.38c6.897,0,11.995,4.741,11.995,11.753
				v17.754h-4.8v-17.153c0-5.396-3.296-7.915-7.734-7.915c-4.258,0-7.436,2.881-9.355,5.757v19.312h-4.798v-41.978H746.787z"/>
			<path style="fill:#363957;" d="M789.563,1292.329c11.094,0,15.173,9.058,13.372,17.212h-22.905
				c0.598,6.055,6.055,8.574,11.873,8.574c3.537,0,7.014-0.957,9.475-2.339v4.678c-2.639,1.382-6.416,2.1-10.195,2.1
				c-8.516,0-15.952-4.858-15.952-15.112C775.229,1297.368,782.727,1292.329,789.563,1292.329z M789.863,1296.768
				c-4.917,0-9.476,2.939-9.834,8.574h18.647C799.097,1302.285,797.178,1296.768,789.863,1296.768z"/>
			<path style="fill:#363957;" d="M841.76,1292.451v4.795c-5.637-0.659-10.193,2.041-11.934,6.66v17.93h-4.797v-28.784h4.316v5.098
				C831.626,1294.37,836.724,1292.031,841.76,1292.451z"/>
			<path style="fill:#363957;" d="M858.264,1292.329c11.094,0,15.173,9.058,13.371,17.212h-22.905
				c0.598,6.055,6.054,8.574,11.872,8.574c3.538,0,7.014-0.957,9.475-2.339v4.678c-2.638,1.382-6.415,2.1-10.195,2.1
				c-8.516,0-15.952-4.858-15.952-15.112C843.931,1297.368,851.428,1292.329,858.264,1292.329z M858.565,1296.768
				c-4.917,0-9.475,2.939-9.833,8.574h18.647C867.798,1302.285,865.878,1296.768,858.565,1296.768z"/>
			<path style="fill:#363957;" d="M904.397,1318.057c0.72,0,1.5-0.181,2.219-0.42v3.896c-1.14,0.42-2.4,0.659-3.599,0.659
				c-2.339,0-4.439-0.957-5.278-3.477c-2.877,2.397-6.536,3.838-11.213,3.838c-5.095,0-10.134-2.7-10.134-8.755
				c0-7.437,6.836-9.717,13.013-9.717c2.52,0,5.576,0.361,7.976,0.903v-1.021c0-4.316-2.938-7.197-8.215-7.197
				c-4.438,0-7.976,1.079-10.493,2.158v-4.678c2.278-0.776,6.235-1.919,10.972-1.919c7.676,0,12.534,4.199,12.534,12.236v11.274
				C902.178,1317.578,903.137,1318.057,904.397,1318.057z M887.544,1318.418c3.66,0,7.319-1.499,9.837-4.199v-5.278
				c-2.039-0.42-4.978-0.84-7.317-0.84c-4.197,0-8.755,1.26-8.755,5.459C881.308,1316.919,884.368,1318.418,887.544,1318.418z"/>
			<path style="fill:#363957;" d="M939.795,1279.858v41.978h-4.32v-4.8c-2.578,2.94-6.115,5.518-11.633,5.518
				c-8.215,0-14.392-6.475-14.392-15.112c0-8.633,6.177-15.112,14.392-15.112c5.518,0,9.055,2.578,11.152,5.039v-17.51H939.795z
				 M924.383,1296.768c-5.577,0-10.135,4.077-10.135,10.674s4.558,10.674,10.135,10.674c5.158,0,8.996-3.354,10.612-7.075v-7.197
				C933.378,1300.127,929.541,1296.768,924.383,1296.768z"/>
			<path style="fill:#363957;" d="M974.297,1318.057c0.718,0,1.499-0.181,2.217-0.42v3.896c-1.137,0.42-2.397,0.659-3.599,0.659
				c-2.339,0-4.438-0.957-5.276-3.477c-2.879,2.397-6.536,3.838-11.213,3.838c-5.098,0-10.137-2.7-10.137-8.755
				c0-7.437,6.836-9.717,13.013-9.717c2.52,0,5.579,0.361,7.978,0.903v-1.021c0-4.316-2.939-7.197-8.218-7.197
				c-4.436,0-7.974,1.079-10.493,2.158v-4.678c2.281-0.776,6.236-1.919,10.974-1.919c7.675,0,12.532,4.199,12.532,12.236v11.274
				C972.076,1317.578,973.037,1318.057,974.297,1318.057z M957.446,1318.418c3.657,0,7.314-1.499,9.834-4.199v-5.278
				c-2.041-0.42-4.978-0.84-7.316-0.84c-4.197,0-8.757,1.26-8.757,5.459C951.206,1316.919,954.268,1318.418,957.446,1318.418z"/>
			<path style="fill:#363957;" d="M986.125,1279.858v17.51c2.1-2.461,5.637-5.039,11.154-5.039c8.215,0,14.39,6.479,14.39,15.112
				c0,8.638-6.175,15.112-14.39,15.112c-5.517,0-9.054-2.577-11.635-5.518v4.8h-4.316v-41.978H986.125z M996.738,1296.768
				c-5.156,0-8.994,3.359-10.612,7.075v7.197c1.619,3.721,5.456,7.075,10.612,7.075c5.58,0,10.138-4.077,10.138-10.674
				S1002.317,1296.768,996.738,1296.768z"/>
			<path style="fill:#363957;" d="M1023.506,1278.057v43.779h-4.799v-43.779H1023.506z"/>
			<path style="fill:#363957;" d="M1044.861,1292.329c11.093,0,15.173,9.058,13.371,17.212h-22.905
				c0.598,6.055,6.055,8.574,11.873,8.574c3.538,0,7.014-0.957,9.476-2.339v4.678c-2.64,1.382-6.417,2.1-10.196,2.1
				c-8.515,0-15.952-4.858-15.952-15.112C1030.527,1297.368,1038.025,1292.329,1044.861,1292.329z M1045.161,1296.768
				c-4.917,0-9.475,2.939-9.834,8.574h18.647C1054.395,1302.285,1052.476,1296.768,1045.161,1296.768z"/>
			<path style="fill:#363957;" d="M1093.94,1292.329c3.237,0,6.416,0.723,8.875,2.339v4.678c-2.158-1.68-5.217-2.578-8.274-2.578
				c-5.579,0-11.396,3.12-11.396,10.674c0,7.378,5.64,10.674,11.274,10.674c3.12,0,6.299-0.898,8.696-2.339v4.8
				c-2.7,1.318-5.757,1.978-9.355,1.978c-7.554,0-15.41-4.736-15.41-14.99C1078.35,1297.07,1086.445,1292.329,1093.94,1292.329z"/>
			<path style="fill:#363957;" d="M1122.92,1292.329c7.856,0,15.351,5.278,15.351,15.112s-7.495,15.112-15.351,15.112
				c-7.793,0-15.352-5.278-15.352-15.112S1115.127,1292.329,1122.92,1292.329z M1122.92,1296.89
				c-5.874,0-10.552,3.896-10.552,10.552s4.678,10.557,10.552,10.557c5.879,0,10.557-3.901,10.557-10.557
				S1128.799,1296.89,1122.92,1296.89z"/>
			<path style="fill:#363957;" d="M1159.88,1292.329c6.896,0,11.995,4.741,11.995,11.753v17.754h-4.8v-17.153
				c0-5.396-3.296-7.915-7.734-7.915c-4.258,0-7.437,2.881-9.356,5.757v19.312h-4.797v-28.784h4.318v4.258
				C1151.426,1294.79,1155.264,1292.329,1159.88,1292.329z"/>
			<path style="fill:#363957;" d="M1186.704,1282.915v10.137h11.514v4.438h-11.514v14.868c0,4.38,1.978,5.698,6.177,5.698
				c2.28,0,4.438-0.542,6.357-1.318v4.438c-2.158,0.776-4.978,1.318-7.736,1.318c-5.579,0-9.534-2.998-9.534-9.297v-15.708h-5.398
				v-4.438h5.398v-8.936L1186.704,1282.915z"/>
			<path style="fill:#363957;" d="M1217.002,1292.329c11.094,0,15.171,9.058,13.372,17.212h-22.908
				c0.601,6.055,6.057,8.574,11.875,8.574c3.535,0,7.016-0.957,9.472-2.339v4.678c-2.637,1.382-6.416,2.1-10.195,2.1
				c-8.513,0-15.95-4.858-15.95-15.112C1202.668,1297.368,1210.166,1292.329,1217.002,1292.329z M1217.3,1296.768
				c-4.917,0-9.473,2.939-9.834,8.574h18.65C1226.536,1302.285,1224.617,1296.768,1217.3,1296.768z"/>
			<path style="fill:#363957;" d="M1252.219,1292.329c6.897,0,11.995,4.741,11.995,11.753v17.754h-4.8v-17.153
				c0-5.396-3.296-7.915-7.733-7.915c-4.258,0-7.437,2.881-9.356,5.757v19.312h-4.797v-28.784h4.319v4.258
				C1243.765,1294.79,1247.603,1292.329,1252.219,1292.329z"/>
			<path style="fill:#363957;" d="M1279.043,1282.915v10.137h11.514v4.438h-11.514v14.868c0,4.38,1.978,5.698,6.177,5.698
				c2.28,0,4.438-0.542,6.357-1.318v4.438c-2.158,0.776-4.978,1.318-7.737,1.318c-5.579,0-9.534-2.998-9.534-9.297v-15.708h-5.398
				v-4.438h5.398v-8.936L1279.043,1282.915z"/>
			<path style="fill:#363957;" d="M1325.298,1292.329c7.856,0,15.352,5.278,15.352,15.112s-7.496,15.112-15.352,15.112
				c-7.793,0-15.352-5.278-15.352-15.112S1317.505,1292.329,1325.298,1292.329z M1325.298,1296.89
				c-5.874,0-10.552,3.896-10.552,10.552s4.678,10.557,10.552,10.557c5.879,0,10.557-3.901,10.557-10.557
				S1331.177,1296.89,1325.298,1296.89z"/>
			<path style="fill:#363957;" d="M1349.245,1321.836v-24.346h-5.397v-4.438h5.397v-3.481c0-8.032,5.159-10.435,10.193-10.435
				c2.641,0,5.219,0.542,7.197,1.323v4.434c-1.619-0.776-3.896-1.318-6.055-1.318c-3.481,0-6.538,0.903-6.538,6.177v3.301h10.793
				v4.438h-10.793v24.346H1349.245z"/>
			<path style="fill:#363957;" d="M1409.053,1318.057c0.72,0,1.5-0.181,2.219-0.42v3.896c-1.14,0.42-2.4,0.659-3.596,0.659
				c-2.339,0-4.438-0.957-5.278-3.477c-2.878,2.397-6.538,3.838-11.216,3.838c-5.095,0-10.132-2.7-10.132-8.755
				c0-7.437,6.836-9.717,13.013-9.717c2.52,0,5.576,0.361,7.974,0.903v-1.021c0-4.316-2.937-7.197-8.213-7.197
				c-4.438,0-7.979,1.079-10.496,2.158v-4.678c2.278-0.776,6.238-1.919,10.974-1.919c7.676,0,12.535,4.199,12.535,12.236v11.274
				C1406.836,1317.578,1407.793,1318.057,1409.053,1318.057z M1392.202,1318.418c3.657,0,7.317-1.499,9.834-4.199v-5.278
				c-2.036-0.42-4.976-0.84-7.314-0.84c-4.2,0-8.755,1.26-8.755,5.459C1385.967,1316.919,1389.023,1318.418,1392.202,1318.418z"/>
			<path style="fill:#363957;" d="M270.391,1362.329c8.213,0,14.39,6.479,14.39,15.112c0,8.638-6.177,15.112-14.39,15.112
				c-5.518,0-9.058-2.578-11.157-5.039v17.515h-4.795v-41.978h4.316v4.795C261.333,1364.907,264.873,1362.329,270.391,1362.329z
				 M269.849,1366.768c-5.156,0-8.994,3.359-10.615,7.075v7.197c1.621,3.721,5.459,7.075,10.615,7.075
				c5.576,0,10.137-4.077,10.137-10.674S275.425,1366.768,269.849,1366.768z"/>
			<path style="fill:#363957;" d="M317.305,1388.057c0.718,0,1.499-0.181,2.217-0.42v3.896c-1.138,0.42-2.398,0.659-3.599,0.659
				c-2.339,0-4.439-0.957-5.276-3.477c-2.878,2.397-6.536,3.838-11.213,3.838c-5.098,0-10.137-2.7-10.137-8.755
				c0-7.437,6.836-9.717,13.013-9.717c2.52,0,5.579,0.361,7.978,0.903v-1.021c0-4.316-2.939-7.197-8.218-7.197
				c-4.436,0-7.974,1.079-10.493,2.158v-4.678c2.28-0.776,6.235-1.919,10.974-1.919c7.676,0,12.532,4.199,12.532,12.236v11.274
				C315.083,1387.578,316.045,1388.057,317.305,1388.057z M300.454,1388.418c3.657,0,7.315-1.499,9.834-4.199v-5.278
				c-2.041-0.42-4.978-0.84-7.317-0.84c-4.196,0-8.757,1.26-8.757,5.459C294.214,1386.919,297.275,1388.418,300.454,1388.418z"/>
			<path style="fill:#363957;" d="M336.748,1362.329c5.518,0,9.058,2.578,11.636,5.518v-4.795h4.316v28.784
				c0,9.893-7.734,13.911-15.71,13.911c-4.258,0-8.277-0.962-11.695-2.7v-4.678c3.418,1.919,7.136,2.939,11.094,2.939
				c6.116,0,11.575-2.339,11.514-9.473v-4.438c-2.098,2.578-5.638,5.156-11.155,5.156c-8.213,0-14.39-6.475-14.39-15.112
				C322.358,1368.809,328.535,1362.329,336.748,1362.329z M337.29,1366.768c-5.576,0-10.137,4.077-10.137,10.674
				s4.561,10.674,10.137,10.674c5.156,0,8.994-3.115,10.613-6.475v-7.798C346.284,1370.127,342.446,1366.768,337.29,1366.768z"/>
			<path style="fill:#363957;" d="M373.95,1362.329c11.094,0,15.171,9.058,13.371,17.212h-22.908
				c0.601,6.055,6.057,8.574,11.875,8.574c3.535,0,7.017-0.957,9.472-2.339v4.678c-2.636,1.382-6.415,2.1-10.195,2.1
				c-8.514,0-15.95-4.858-15.95-15.112C359.616,1367.368,367.114,1362.329,373.95,1362.329z M374.248,1366.768
				c-4.917,0-9.473,2.939-9.834,8.574h18.651C383.484,1372.285,381.565,1366.768,374.248,1366.768z"/>
			<path style="fill:#363957;" d="M450.43,1363.052l-9.834,28.784h-5.215l-7.798-22.251l-7.792,22.251h-5.22l-9.834-28.784h5.039
				l7.434,23.506l8.215-23.506h4.316l8.218,23.506l7.435-23.506H450.43z"/>
			<path style="fill:#363957;" d="M460.772,1349.858v16.851c2.041-2.28,5.637-4.38,9.895-4.38c6.896,0,11.995,4.741,11.995,11.753
				v17.754h-4.8v-17.153c0-5.396-3.296-7.915-7.735-7.915c-4.257,0-7.436,2.881-9.355,5.757v19.312h-4.797v-41.978H460.772z"/>
			<path style="fill:#363957;" d="M503.548,1362.329c11.093,0,15.173,9.058,13.371,17.212h-22.905
				c0.598,6.055,6.055,8.574,11.872,8.574c3.538,0,7.014-0.957,9.476-2.339v4.678c-2.64,1.382-6.417,2.1-10.196,2.1
				c-8.516,0-15.952-4.858-15.952-15.112C489.214,1367.368,496.712,1362.329,503.548,1362.329z M503.848,1366.768
				c-4.916,0-9.476,2.939-9.834,8.574h18.647C513.081,1372.285,511.162,1366.768,503.848,1366.768z"/>
			<path style="fill:#363957;" d="M538.765,1362.329c6.898,0,11.995,4.741,11.995,11.753v17.754h-4.797v-17.153
				c0-5.396-3.298-7.915-7.734-7.915c-4.257,0-7.437,2.881-9.355,5.757v19.312h-4.8v-28.784h4.32v4.258
				C530.31,1364.79,534.148,1362.329,538.765,1362.329z"/>
			<path style="fill:#363957;" d="M579.15,1348.057v43.779h-4.8v-43.779H579.15z"/>
			<path style="fill:#363957;" d="M601.523,1362.329c7.857,0,15.352,5.278,15.352,15.112s-7.495,15.112-15.352,15.112
				c-7.793,0-15.352-5.278-15.352-15.112S593.731,1362.329,601.523,1362.329z M601.523,1366.89c-5.874,0-10.551,3.896-10.551,10.552
				s4.677,10.557,10.551,10.557c5.879,0,10.557-3.901,10.557-10.557S607.402,1366.89,601.523,1366.89z"/>
			<path style="fill:#363957;" d="M637.163,1362.329c7.856,0,15.352,5.278,15.352,15.112s-7.495,15.112-15.352,15.112
				c-7.793,0-15.352-5.278-15.352-15.112S629.37,1362.329,637.163,1362.329z M637.163,1366.89c-5.874,0-10.552,3.896-10.552,10.552
				s4.678,10.557,10.552,10.557c5.878,0,10.557-3.901,10.557-10.557S643.042,1366.89,637.163,1366.89z"/>
			<path style="fill:#363957;" d="M680.42,1391.836l-10.555-12.354h-5.637v12.354h-4.797v-41.978h4.797v25.186h5.815l9.116-11.992
				h5.577l-10.914,14.331l12.234,14.453H680.42z"/>
			<path style="fill:#363957;" d="M693.208,1356.934c-1.677,0-3.114-1.021-3.114-3.057c0-1.982,1.437-3.062,3.114-3.062
				c1.68,0,3.121,1.079,3.121,3.062C696.329,1355.913,694.888,1356.934,693.208,1356.934z M690.81,1391.836v-28.784h4.8v28.784
				H690.81z"/>
			<path style="fill:#363957;" d="M719.302,1362.329c6.896,0,11.995,4.741,11.995,11.753v17.754h-4.797v-17.153
				c0-5.396-3.299-7.915-7.734-7.915c-4.257,0-7.437,2.881-9.355,5.757v19.312h-4.8v-28.784h4.318v4.258
				C710.847,1364.79,714.685,1362.329,719.302,1362.329z"/>
			<path style="fill:#363957;" d="M752.244,1362.329c5.518,0,9.055,2.578,11.633,5.518v-4.795h4.316v28.784
				c0,9.893-7.734,13.911-15.708,13.911c-4.258,0-8.276-0.962-11.694-2.7v-4.678c3.418,1.919,7.134,2.939,11.094,2.939
				c6.116,0,11.572-2.339,11.514-9.473v-4.438c-2.1,2.578-5.638,5.156-11.155,5.156c-8.215,0-14.392-6.475-14.392-15.112
				C737.852,1368.809,744.028,1362.329,752.244,1362.329z M752.784,1366.768c-5.577,0-10.135,4.077-10.135,10.674
				s4.558,10.674,10.135,10.674c5.156,0,8.994-3.115,10.615-6.475v-7.798C761.777,1370.127,757.94,1366.768,752.784,1366.768z"/>
			<path style="fill:#363957;" d="M817.637,1388.057c0.718,0,1.499-0.181,2.216-0.42v3.896c-1.137,0.42-2.397,0.659-3.596,0.659
				c-2.339,0-4.436-0.957-5.276-3.477c-2.881,2.397-6.538,3.838-11.216,3.838c-5.098,0-10.134-2.7-10.134-8.755
				c0-7.437,6.838-9.717,13.013-9.717c2.52,0,5.579,0.361,7.976,0.903v-1.021c0-4.316-2.939-7.197-8.215-7.197
				c-4.436,0-7.976,1.079-10.495,2.158v-4.678c2.28-0.776,6.237-1.919,10.977-1.919c7.675,0,12.531,4.199,12.531,12.236v11.274
				C815.417,1387.578,816.377,1388.057,817.637,1388.057z M800.786,1388.418c3.657,0,7.315-1.499,9.834-4.199v-5.278
				c-2.039-0.42-4.975-0.84-7.314-0.84c-4.199,0-8.755,1.26-8.755,5.459C794.551,1386.919,797.607,1388.418,800.786,1388.418z"/>
			<path style="fill:#363957;" d="M831.086,1352.915v10.137h11.514v4.438h-11.514v14.868c0,4.38,1.98,5.698,6.176,5.698
				c2.278,0,4.437-0.542,6.356-1.318v4.438c-2.158,0.776-4.976,1.318-7.734,1.318c-5.576,0-9.536-2.998-9.536-9.297v-15.708h-5.395
				v-4.438h5.395v-8.936L831.086,1352.915z"/>
			<path style="fill:#363957;" d="M866.489,1356.934c-1.68,0-3.121-1.021-3.121-3.057c0-1.982,1.441-3.062,3.121-3.062
				c1.678,0,3.116,1.079,3.116,3.062C869.605,1355.913,868.167,1356.934,866.489,1356.934z M864.087,1391.836v-28.784h4.8v28.784
				H864.087z"/>
			<path style="fill:#363957;" d="M884.545,1352.915v10.137h11.514v4.438h-11.514v14.868c0,4.38,1.978,5.698,6.177,5.698
				c2.277,0,4.436-0.542,6.355-1.318v4.438c-2.158,0.776-4.978,1.318-7.737,1.318c-5.576,0-9.534-2.998-9.534-9.297v-15.708h-5.397
				v-4.438h5.397v-8.936L884.545,1352.915z"/>
			<path style="fill:#363957;" d="M911.783,1362.329c3.837,0,7.494,1.021,10.195,2.461v4.556c-2.398-1.558-6.416-2.695-9.896-2.695
				c-3.118,0-6.416,1.016-6.416,3.838c0,6.235,18.289,3.594,18.289,13.97c0,5.996-5.635,8.096-11.873,8.096
				c-4.077,0-8.455-1.079-11.155-2.817v-4.678c2.94,1.978,7.317,3.057,10.916,3.057c4.077,0,7.317-0.659,7.317-3.535
				c0-6.06-18.35-3.657-18.35-13.975C900.81,1364.668,906.387,1362.329,911.783,1362.329z"/>
			<path style="fill:#363957;" d="M950.303,1348.057v43.779h-4.795v-43.779H950.303z"/>
			<path style="fill:#363957;" d="M984.912,1388.057c0.72,0,1.499-0.181,2.22-0.42v3.896c-1.14,0.42-2.4,0.659-3.597,0.659
				c-2.339,0-4.439-0.957-5.278-3.477c-2.879,2.397-6.538,3.838-11.216,3.838c-5.095,0-10.132-2.7-10.132-8.755
				c0-7.437,6.836-9.717,13.013-9.717c2.519,0,5.576,0.361,7.974,0.903v-1.021c0-4.316-2.937-7.197-8.213-7.197
				c-4.439,0-7.978,1.079-10.496,2.158v-4.678c2.278-0.776,6.237-1.919,10.974-1.919c7.676,0,12.534,4.199,12.534,12.236v11.274
				C982.695,1387.578,983.652,1388.057,984.912,1388.057z M968.062,1388.418c3.658,0,7.317-1.499,9.834-4.199v-5.278
				c-2.037-0.42-4.976-0.84-7.314-0.84c-4.199,0-8.755,1.26-8.755,5.459C961.826,1386.919,964.883,1388.418,968.062,1388.418z"/>
			<path style="fill:#363957;" d="M1012.396,1363.052h5.094l-14.15,33.101c-2.997,6.958-6.655,9.595-10.854,9.595
				c-1.021,0-2.039-0.122-3.118-0.42v-4.136c0.838,0.239,1.677,0.356,2.517,0.356c3.24,0,5.579-2.339,7.436-7.017l1.079-2.637
				l-13.672-28.843h5.098l10.855,23.325L1012.396,1363.052z"/>
			<path style="fill:#363957;" d="M1035.137,1362.329c7.856,0,15.351,5.278,15.351,15.112s-7.495,15.112-15.351,15.112
				c-7.793,0-15.352-5.278-15.352-15.112S1027.344,1362.329,1035.137,1362.329z M1035.137,1366.89
				c-5.875,0-10.552,3.896-10.552,10.552s4.677,10.557,10.552,10.557c5.878,0,10.556-3.901,10.556-10.557
				S1041.016,1366.89,1035.137,1366.89z"/>
			<path style="fill:#363957;" d="M1083.73,1363.052v28.784h-4.316v-4.258c-1.919,2.52-5.757,4.976-10.376,4.976
				c-7.495,0-11.992-4.736-11.992-11.753v-17.749h4.794v17.148c0,5.396,2.7,7.915,7.739,7.915c4.258,0,7.434-2.876,9.353-5.757
				v-19.307H1083.73z"/>
			<path style="fill:#363957;" d="M1099.283,1352.915v10.137h11.513v4.438h-11.513v14.868c0,4.38,1.977,5.698,6.176,5.698
				c2.278,0,4.436-0.542,6.354-1.318v4.438c-2.158,0.776-4.978,1.318-7.736,1.318c-5.576,0-9.534-2.998-9.534-9.297v-15.708h-5.397
				v-4.438h5.397v-8.936L1099.283,1352.915z"/>
			<path style="fill:#363957;" d="M1119.263,1392.373c-1.679,0-3.179-1.021-3.179-3.057c0-1.978,1.5-2.998,3.179-2.998
				s3.12,1.021,3.12,2.998C1122.383,1391.353,1120.942,1392.373,1119.263,1392.373z"/>
		</g>
	</g>
</g>
<g id="_2">
	<g>
		<g>
			<g>
				
					<rect x="3204.717" y="834.172" transform="matrix(-1 -1.224647e-16 1.224647e-16 -1 6904.5215 2500.1694)" style="fill:#AED3FF;" width="495.088" height="831.825"/>
				<rect x="3189.198" y="834.172" style="fill:#D2E4FF;" width="495.087" height="831.825"/>
				<rect x="3222.915" y="880.641" style="fill:#F3F9FF;" width="428.829" height="289.738"/>
				<rect x="3414.199" y="1442.272" style="fill:#F3F9FF;" width="230.151" height="154.697"/>
				<path style="fill:#EE9849;" d="M3240.597,1028.52c0,0,73.219-9.122,117.959,32.095c44.742,41.217,128.091,3.652,161.649,0
					c58.348-6.35,104.09,12.739,117.657,33.723v62.95h-397.266V1028.52z"/>
				<rect x="3297.349" y="927.212" style="fill:#A6C7F9;" width="3.067" height="98.298"/>
				<rect x="3417.756" y="969.393" style="fill:#A6C7F9;" width="3.067" height="98.298"/>
				<rect x="3541.997" y="947.151" style="fill:#A6C7F9;" width="3.066" height="98.299"/>
				<path style="fill:#A6C7F9;" d="M3334.672,942.294h-23.519c-1.406,0-2.557-1.15-2.557-2.557l0,0c0-1.406,1.15-2.556,2.557-2.556
					h23.519c1.405,0,2.556,1.15,2.556,2.556l0,0C3337.228,941.144,3336.077,942.294,3334.672,942.294z"/>
				<path style="fill:#A6C7F9;" d="M3334.672,951.498h-23.519c-1.406,0-2.557-1.15-2.557-2.557l0,0c0-1.406,1.15-2.556,2.557-2.556
					h23.519c1.405,0,2.556,1.15,2.556,2.556l0,0C3337.228,950.347,3336.077,951.498,3334.672,951.498z"/>
				<path style="fill:#A6C7F9;" d="M3453.289,992.4h-23.52c-1.405,0-2.556-1.15-2.556-2.556l0,0c0-1.406,1.15-2.557,2.556-2.557
					h23.52c1.405,0,2.557,1.15,2.557,2.557l0,0C3455.846,991.25,3454.694,992.4,3453.289,992.4z"/>
				<path style="fill:#A6C7F9;" d="M3453.289,1001.414h-23.52c-1.405,0-2.556-1.15-2.556-2.557l0,0c0-1.406,1.15-2.557,2.556-2.557
					h23.52c1.405,0,2.557,1.15,2.557,2.557l0,0C3455.846,1000.264,3454.694,1001.414,3453.289,1001.414z"/>
				<path style="fill:#A6C7F9;" d="M3579.575,955.332h-23.519c-1.406,0-2.557-1.15-2.557-2.556l0,0c0-1.406,1.15-2.557,2.557-2.557
					h23.519c1.406,0,2.557,1.151,2.557,2.557l0,0C3582.132,954.182,3580.981,955.332,3579.575,955.332z"/>
				<path style="fill:#A6C7F9;" d="M3579.575,964.346h-23.519c-1.406,0-2.557-1.15-2.557-2.557l0,0c0-1.406,1.15-2.556,2.557-2.556
					h23.519c1.406,0,2.557,1.15,2.557,2.556l0,0C3582.132,963.195,3580.981,964.346,3579.575,964.346z"/>
				<g>
					<path style="fill:#F3F9FF;" d="M3567.061,1244.492c0-23.385,18.957-42.342,42.343-42.342c23.384,0,42.341,18.957,42.341,42.342
						s-18.957,42.342-42.341,42.342C3586.018,1286.834,3567.061,1267.877,3567.061,1244.492z"/>
					<path style="fill:#C65447;" d="M3648.155,1244.491c0,21.402-17.351,38.753-38.752,38.753c-10.104,0-19.304-3.863-26.196-10.195
						l26.196-28.558v-38.751C3630.805,1205.74,3648.155,1223.09,3648.155,1244.491z"/>
					<path style="fill:#A6C7F9;" d="M3594.644,1237.665h-13.916c-0.642,0-1.166-0.525-1.166-1.166l0,0
						c0-0.641,0.524-1.166,1.166-1.166h13.916c0.642,0,1.166,0.524,1.166,1.166l0,0
						C3595.81,1237.14,3595.285,1237.665,3594.644,1237.665z"/>
				</g>
				<g>
					<circle style="fill:#F3F9FF;" cx="3504.276" cy="1244.492" r="42.342"/>
					<path style="fill:#E57970;" d="M3504.278,1244.491l23.812,30.575c-6.568,5.127-14.833,8.178-23.812,8.178
						c-21.407,0-38.758-17.351-38.758-38.753c0-21.401,17.351-38.751,38.758-38.751c20.207,0,36.804,15.467,38.591,35.212
						L3504.278,1244.491z"/>
					<path style="fill:#A6C7F9;" d="M3534.117,1254.073h-9.684c-0.642,0-1.166-0.524-1.166-1.165l0,0
						c0-0.642,0.524-1.166,1.166-1.166h9.684c0.641,0,1.166,0.524,1.166,1.166l0,0
						C3535.283,1253.549,3534.758,1254.073,3534.117,1254.073z"/>
				</g>
				<g>
					<path style="fill:#F3F9FF;" d="M3567.061,1361.112c0-23.384,18.957-42.342,42.343-42.342c23.384,0,42.341,18.958,42.341,42.342
						c0,23.386-18.957,42.343-42.341,42.343C3586.018,1403.455,3567.061,1384.498,3567.061,1361.112z"/>
					<path style="fill:#EE9849;" d="M3648.155,1361.111c0,21.402-17.351,38.753-38.752,38.753c-10.104,0-19.304-3.863-26.196-10.194
						l26.196-28.559v-38.752C3630.805,1322.359,3648.155,1339.711,3648.155,1361.111z"/>
					<path style="fill:#A6C7F9;" d="M3594.644,1354.285h-13.916c-0.642,0-1.166-0.524-1.166-1.166l0,0
						c0-0.641,0.524-1.166,1.166-1.166h13.916c0.642,0,1.166,0.525,1.166,1.166l0,0
						C3595.81,1353.761,3595.285,1354.285,3594.644,1354.285z"/>
				</g>
				<g>
					<path style="fill:#F3F9FF;" d="M3461.935,1361.112c0-23.384,18.957-42.342,42.342-42.342s42.342,18.958,42.342,42.342
						c0,23.386-18.957,42.343-42.342,42.343S3461.935,1384.498,3461.935,1361.112z"/>
					<path style="fill:#C65447;" d="M3542.869,1357.572c-1.787-19.744-18.384-35.213-38.591-35.213
						c-21.407,0-38.758,17.352-38.758,38.752c0,21.402,17.351,38.753,38.758,38.753c8.979,0,17.242-3.051,23.812-8.177
						l-23.812-30.576L3542.869,1357.572z"/>
					<path style="fill:#A6C7F9;" d="M3534.117,1370.694h-9.684c-0.642,0-1.166-0.525-1.166-1.166l0,0
						c0-0.642,0.524-1.165,1.166-1.165h9.684c0.641,0,1.166,0.523,1.166,1.165l0,0
						C3535.283,1370.169,3534.758,1370.694,3534.117,1370.694z"/>
				</g>
				<g>
					<polygon style="fill:#A6C7F9;" points="3634.43,1586.16 3423.178,1586.16 3423.178,1461.338 3425.805,1461.338 
						3425.805,1583.533 3634.43,1583.533 					"/>
				</g>
				<g>
					<path style="fill:#A6C7F9;" d="M3489.217,1541.021c-25.86-20.585-53.361,0-53.361,0v35.193h193.332v-90.972
						C3576.647,1486.571,3515.076,1561.605,3489.217,1541.021z"/>
					<path style="fill:#A6C7F9;" d="M3438.068,1470.855h90.087c1.218,0,2.213-0.996,2.213-2.213c0-1.218-0.995-2.213-2.213-2.213
						h-90.087c-1.217,0-2.213,0.995-2.213,2.213C3435.855,1469.859,3436.852,1470.855,3438.068,1470.855z"/>
					<path style="fill:#A6C7F9;" d="M3438.068,1481.672h90.087c1.218,0,2.213-0.996,2.213-2.214c0-1.217-0.995-2.213-2.213-2.213
						h-90.087c-1.217,0-2.213,0.996-2.213,2.213C3435.855,1480.676,3436.852,1481.672,3438.068,1481.672z"/>
					<path style="fill:#A6C7F9;" d="M3437.666,1491.883h59.65c0.996,0,1.811-0.814,1.811-1.811v-0.805
						c0-0.996-0.814-1.812-1.811-1.812h-59.65c-0.995,0-1.811,0.815-1.811,1.812v0.805
						C3435.855,1491.068,3436.671,1491.883,3437.666,1491.883z"/>
				</g>
			</g>
			<g>
				<rect x="2429.875" y="704.875" style="fill:#D2E4FF;" width="677.407" height="1021.606"/>
				<rect x="2495.328" y="762.019" style="fill:#F3F9FF;" width="545.393" height="607.904"/>
				
					<ellipse transform="matrix(0.9988 -0.0498 0.0498 0.9988 -74.682 131.7072)" style="fill:#F3F9FF;" cx="2605.006" cy="1564.145" rx="98.086" ry="98.086"/>
				<path style="fill:#EE9849;" d="M2687.917,1564.145c0-45.789-37.117-82.915-82.907-82.915c-45.798,0-82.915,37.126-82.915,82.915
					c0,45.79,37.117,82.916,82.915,82.916c18.916,0,36.345-6.329,50.285-16.992l-50.285-65.924l77.479,29.571
					C2685.992,1584.531,2687.917,1574.564,2687.917,1564.145z"/>
				
					<ellipse transform="matrix(0.9981 -0.0621 0.0621 0.9981 -91.5125 185.6575)" style="fill:#F3F9FF;" cx="2939.199" cy="1564.145" rx="98.086" ry="98.086"/>
				<path style="fill:#EE9849;" d="M2939.201,1481.229c-45.798,0-82.915,37.126-82.915,82.915c0,22.664,9.083,43.193,23.823,58.159
					l59.092-58.159l77.479,29.571c3.504-9.185,5.428-19.151,5.428-29.571C3022.107,1518.355,2984.99,1481.229,2939.201,1481.229z"/>
				<g>
					<path style="fill:#DD7C2C;" d="M2927.084,1522.053h-35.294c-1.387,0-2.521,1.135-2.521,2.521l0,0
						c0,1.387,1.135,2.521,2.521,2.521h35.294c1.386,0,2.521-1.134,2.521-2.521l0,0
						C2929.604,1523.188,2928.47,1522.053,2927.084,1522.053z"/>
					<path style="fill:#DD7C2C;" d="M2927.084,1530.035h-35.294c-1.387,0-2.521,1.135-2.521,2.521s1.135,2.521,2.521,2.521h35.294
						c1.386,0,2.521-1.135,2.521-2.521S2928.47,1530.035,2927.084,1530.035z"/>
					<path style="fill:#DD7C2C;" d="M2906.364,1538.02h-14.574c-1.387,0-2.521,1.134-2.521,2.521c0,1.386,1.135,2.521,2.521,2.521
						h14.574c1.387,0,2.521-1.135,2.521-2.521C2908.885,1539.153,2907.751,1538.02,2906.364,1538.02z"/>
				</g>
				<g>
					<path style="fill:#DD7C2C;" d="M2592.212,1522.053h-35.294c-1.387,0-2.521,1.135-2.521,2.521l0,0
						c0,1.387,1.134,2.521,2.521,2.521h35.294c1.387,0,2.521-1.134,2.521-2.521l0,0
						C2594.732,1523.188,2593.599,1522.053,2592.212,1522.053z"/>
					<path style="fill:#DD7C2C;" d="M2592.212,1530.035h-35.294c-1.387,0-2.521,1.135-2.521,2.521s1.134,2.521,2.521,2.521h35.294
						c1.387,0,2.521-1.135,2.521-2.521S2593.599,1530.035,2592.212,1530.035z"/>
					<path style="fill:#DD7C2C;" d="M2571.493,1538.02h-14.575c-1.387,0-2.521,1.134-2.521,2.521c0,1.386,1.134,2.521,2.521,2.521
						h14.575c1.387,0,2.521-1.135,2.521-2.521C2574.014,1539.153,2572.88,1538.02,2571.493,1538.02z"/>
				</g>
				<g>
					<rect x="2543.893" y="979.273" style="fill:#A6C7F9;" width="57.553" height="358.513"/>
					<rect x="2638.179" y="879.34" style="fill:#A6C7F9;" width="57.553" height="458.445"/>
					<rect x="2741.06" y="1065.972" style="fill:#A6C7F9;" width="57.552" height="271.814"/>
					<rect x="2841.169" y="940.546" style="fill:#A6C7F9;" width="57.553" height="397.239"/>
					<rect x="2941.8" y="1119.173" style="fill:#A6C7F9;" width="57.552" height="218.612"/>
				</g>
				<g>
					<path style="fill:#A6C7F9;" d="M2895.991,888.864h-48.739c-2.773,0-5.042,2.268-5.042,5.042c0,2.773,2.269,5.042,5.042,5.042
						h48.739c2.772,0,5.042-2.269,5.042-5.042C2901.033,891.133,2898.764,888.864,2895.991,888.864z"/>
					<path style="fill:#A6C7F9;" d="M2858.353,907.211h-11.101c-2.773,0-5.042,2.269-5.042,5.042c0,2.773,2.269,5.042,5.042,5.042
						h11.101c2.773,0,5.042-2.268,5.042-5.042C2863.395,909.48,2861.126,907.211,2858.353,907.211z"/>
					<path style="fill:#A6C7F9;" d="M2695.152,810.783h-48.739c-2.772,0-5.042,2.269-5.042,5.042c0,2.773,2.27,5.042,5.042,5.042
						h48.739c2.773,0,5.042-2.269,5.042-5.042C2700.194,813.052,2697.926,810.783,2695.152,810.783z"/>
					<path style="fill:#A6C7F9;" d="M2657.514,829.13h-11.101c-2.772,0-5.042,2.269-5.042,5.042l0,0c0,2.773,2.27,5.042,5.042,5.042
						h11.101c2.773,0,5.042-2.269,5.042-5.042l0,0C2662.556,831.399,2660.287,829.13,2657.514,829.13z"/>
					<path style="fill:#A6C7F9;" d="M2794.206,1012.462h-48.739c-2.773,0-5.043,2.269-5.043,5.042c0,2.773,2.27,5.042,5.043,5.042
						h48.739c2.772,0,5.042-2.269,5.042-5.042C2799.248,1014.731,2796.979,1012.462,2794.206,1012.462z"/>
					<path style="fill:#A6C7F9;" d="M2756.566,1030.81h-11.1c-2.773,0-5.043,2.269-5.043,5.042l0,0c0,2.773,2.27,5.042,5.043,5.042
						h11.1c2.773,0,5.042-2.269,5.042-5.042l0,0C2761.608,1033.078,2759.34,1030.81,2756.566,1030.81z"/>
					<path style="fill:#A6C7F9;" d="M2994.945,1065.972h-48.739c-2.772,0-5.042,2.269-5.042,5.042s2.27,5.042,5.042,5.042h48.739
						c2.773,0,5.042-2.269,5.042-5.042S2997.719,1065.972,2994.945,1065.972z"/>
					<path style="fill:#A6C7F9;" d="M2957.307,1084.319h-11.101c-2.772,0-5.042,2.269-5.042,5.042c0,2.772,2.27,5.042,5.042,5.042
						h11.101c2.773,0,5.042-2.269,5.042-5.042C2962.349,1086.588,2960.08,1084.319,2957.307,1084.319z"/>
				</g>
			</g>
			<g>
				<rect x="1843.375" y="1092.122" style="fill:#AED3FF;" width="495.088" height="278.72"/>
				<rect x="1859.474" y="1092.122" style="fill:#D2E4FF;" width="495.088" height="278.72"/>
				<circle style="fill:#F3F9FF;" cx="1994.875" cy="1225.185" r="89.517"/>
				<g>
					<path style="fill:#F3F9FF;" d="M2298.907,1175.178h-148.296c-5.374,0-9.771,4.397-9.771,9.771l0,0
						c0,5.375,4.396,9.771,9.771,9.771h148.296c5.374,0,9.771-4.397,9.771-9.771l0,0
						C2308.679,1179.575,2304.281,1175.178,2298.907,1175.178z"/>
					<path style="fill:#F3F9FF;" d="M2298.907,1215.413h-148.296c-5.374,0-9.771,4.397-9.771,9.771l0,0
						c0,5.375,4.396,9.771,9.771,9.771h148.296c5.374,0,9.771-4.396,9.771-9.771l0,0
						C2308.679,1219.81,2304.281,1215.413,2298.907,1215.413z"/>
					<path style="fill:#F3F9FF;" d="M2298.907,1255.648h-148.296c-5.374,0-9.771,4.397-9.771,9.771s4.396,9.771,9.771,9.771h148.296
						c5.374,0,9.771-4.397,9.771-9.771S2304.281,1255.648,2298.907,1255.648z"/>
				</g>
				<path style="fill:#A8D29F;" d="M1912.917,1223.884h81.961v-81.96C1949.614,1141.923,1912.917,1178.62,1912.917,1223.884z"/>
				<path style="fill:#F1A34F;" d="M2076.837,1226.522h-81.959h-0.002h-81.959c0,45.263,36.696,81.959,81.959,81.961l0,0h0
					c0,0,0.001,0,0.001,0l0,0C2040.14,1308.481,2076.837,1271.785,2076.837,1226.522z"/>
				<g>
					<path style="fill:#82B378;" d="M1980.72,1181.747h-44.481c-2.531,0-4.602,2.07-4.602,4.602s2.071,4.602,4.602,4.602h44.481
						c2.531,0,4.602-2.07,4.602-4.602S1983.251,1181.747,1980.72,1181.747z"/>
					<path style="fill:#82B378;" d="M1946.37,1198.491h-10.131c-2.531,0-4.602,2.071-4.602,4.602c0,2.531,2.071,4.602,4.602,4.602
						h10.131c2.531,0,4.602-2.07,4.602-4.602C1950.971,1200.563,1948.9,1198.491,1946.37,1198.491z"/>
				</g>
				<g>
					<path style="fill:#DD8936;" d="M2046.759,1246.559h-44.481c-2.531,0-4.602,2.07-4.602,4.601c0,2.531,2.071,4.602,4.602,4.602
						h44.481c2.531,0,4.602-2.07,4.602-4.602C2051.36,1248.629,2049.29,1246.559,2046.759,1246.559z"/>
					<path style="fill:#DD8936;" d="M2012.408,1263.303h-10.131c-2.531,0-4.602,2.071-4.602,4.602l0,0
						c0,2.531,2.071,4.603,4.602,4.603h10.131c2.53,0,4.602-2.071,4.602-4.603l0,0
						C2017.01,1265.374,2014.938,1263.303,2012.408,1263.303z"/>
				</g>
			</g>
			<g>
				<path style="fill:#AED3FF;" d="M1808.505,1420.754V1705.8h495.087v-285.046H1808.505z"/>
				<path style="fill:#D2E4FF;" d="M1824.604,1420.754V1705.8h495.087v-285.046H1824.604z"/>
				<circle style="fill:#F3F9FF;" cx="1960" cy="1554.475" r="89.518"/>
				<g>
					<path style="fill:#F3F9FF;" d="M2115.736,1524.011h148.295c5.374,0,9.771-4.397,9.771-9.771s-4.397-9.771-9.771-9.771h-148.295
						c-5.374,0-9.771,4.397-9.771,9.771S2110.362,1524.011,2115.736,1524.011z"/>
					<path style="fill:#F3F9FF;" d="M2264.031,1544.703h-148.295c-5.374,0-9.771,4.397-9.771,9.771s4.397,9.771,9.771,9.771h148.295
						c5.374,0,9.771-4.397,9.771-9.771S2269.405,1544.703,2264.031,1544.703z"/>
					<path style="fill:#F3F9FF;" d="M2264.031,1584.938h-148.295c-5.374,0-9.771,4.397-9.771,9.771l0,0
						c0,5.374,4.397,9.771,9.771,9.771h148.295c5.374,0,9.771-4.396,9.771-9.771l0,0
						C2273.803,1589.336,2269.405,1584.938,2264.031,1584.938z"/>
				</g>
				<path style="fill:#F1A34F;" d="M1960.002,1555.928l-81.953-1.042c-0.008,0.345-0.008,0.697-0.008,1.042
					c0,45.264,36.697,81.962,81.961,81.962c16.182,0,31.267-4.694,43.975-12.793L1960.002,1555.928z"/>
				<g>
					<path style="fill:#DD8936;" d="M1963.02,1581.735h-44.481c-2.531,0-4.602,2.071-4.602,4.602v0.001
						c0,2.53,2.071,4.601,4.602,4.601h44.481c2.531,0,4.602-2.07,4.602-4.601v-0.001
						C1967.622,1583.807,1965.551,1581.735,1963.02,1581.735z"/>
					<path style="fill:#DD8936;" d="M1928.669,1598.48h-10.131c-2.531,0-4.602,2.07-4.602,4.602c0,2.53,2.071,4.602,4.602,4.602
						h10.131c2.531,0,4.602-2.071,4.602-4.602C1933.271,1600.551,1931.2,1598.48,1928.669,1598.48z"/>
				</g>
			</g>
			<g>
				<rect x="1808.505" y="788.146" style="fill:#AED3FF;" width="495.094" height="258.3"/>
				<rect x="1824.604" y="788.146" style="fill:#D2E4FF;" width="495.087" height="258.3"/>
				
					<ellipse transform="matrix(0.7071 -0.7071 0.7071 0.7071 -77.2391 1655.7115)" style="fill:#F3F9FF;" cx="1960.001" cy="921.092" rx="89.518" ry="89.517"/>
				<path style="fill:#A8D29F;" d="M1960.003,839.139c-45.264,0-81.961,36.69-81.961,81.954c0,31.007,17.225,57.995,42.625,71.914
					c13.13-24.319,39.335-71.914,39.335-71.914l38.807,72.198c25.691-13.835,43.146-40.977,43.146-72.198
					C2041.956,875.829,2005.267,839.139,1960.003,839.139z"/>
				<g>
					<path style="fill:#F3F9FF;" d="M2264.032,871.085h-148.295c-5.374,0-9.771,4.397-9.771,9.771l0,0
						c0,5.374,4.397,9.771,9.771,9.771h148.295c5.375,0,9.771-4.397,9.771-9.771l0,0
						C2273.804,875.482,2269.407,871.085,2264.032,871.085z"/>
					<path style="fill:#F3F9FF;" d="M2264.032,911.32h-148.295c-5.374,0-9.771,4.397-9.771,9.771c0,5.374,4.397,9.771,9.771,9.771
						h148.295c5.375,0,9.771-4.397,9.771-9.771C2273.804,915.717,2269.407,911.32,2264.032,911.32z"/>
					<path style="fill:#F3F9FF;" d="M2264.032,951.555h-148.295c-5.374,0-9.771,4.397-9.771,9.772c0,5.374,4.397,9.771,9.771,9.771
						h148.295c5.375,0,9.771-4.397,9.771-9.771C2273.804,955.952,2269.407,951.555,2264.032,951.555z"/>
				</g>
				<g>
					<path style="fill:#82B378;" d="M1963.021,881.949h-44.481c-2.531,0-4.602,2.071-4.602,4.602s2.07,4.602,4.602,4.602h44.481
						c2.531,0,4.602-2.071,4.602-4.602S1965.552,881.949,1963.021,881.949z"/>
					<path style="fill:#82B378;" d="M1928.67,898.693h-10.13c-2.531,0-4.602,2.071-4.602,4.602l0,0c0,2.531,2.07,4.602,4.602,4.602
						h10.13c2.531,0,4.602-2.071,4.602-4.602l0,0C1933.272,900.764,1931.202,898.693,1928.67,898.693z"/>
				</g>
			</g>
		</g>
		<g>
			<path style="fill:#E58638;" d="M2434.527,1234.227c0,0,57.75,59.618,60.521,82.097c2.771,22.48-27.476,57.648-27.476,57.648
				L2434.527,1234.227z"/>
			<path style="fill:#163560;" d="M2409.836,1852.69c0,0-1.965,31.693-8.097,32.147c-0.816,0.061-31.101,0.061-31.101,0.061
				l-38.658-0.224c0,0,0.253-9.315,11.553-11.284c11.301-1.97,30.215-9.911,37.061-24.848
				C2387.795,1832.831,2409.836,1852.69,2409.836,1852.69z"/>
			<path style="fill:#163560;" d="M2495.942,1852.69c0,0-1.965,31.693-8.097,32.147c-0.815,0.061-31.1,0.061-31.1,0.061
				l-38.775-0.138c0,0,0.369-9.401,11.669-11.37c11.301-1.97,30.215-9.911,37.061-24.848
				C2473.901,1832.831,2495.942,1852.69,2495.942,1852.69z"/>
			<path style="fill:#163560;" d="M2367.021,1512.818c0,0,10.11,64.667,47.828,179.461
				c37.719,114.793,42.859,164.502,42.859,164.502s10.202,1.479,20.979,1.479c6.817,0,19.484-2.614,19.484-2.614
				s0.345-125.455-17.038-183.181c-17.383-57.725-3.752-208.105-3.752-208.105L2367.021,1512.818z"/>
			<path style="fill:#1C468A;" d="M2347.331,1467.902c0,0-1.432,97.448,15.429,217.098
				c16.859,119.649,11.145,170.439,11.145,170.439s13.881,2.485,18.757,2.648c5.219,0.173,21.625-1.307,21.625-1.307
				s24.133-119.694,17.214-179.581c-6.92-59.888,33.046-205.5,33.046-205.5L2347.331,1467.902z"/>
			<path style="fill:#FFB27D;" d="M2425.503,1239.86l-19.046,14.106l-27.525-5.795c0.381-2.511,2.198-12.914,3.853-22.336
				c0.1-0.556,0.2-1.112,0.294-1.655c1.417-8.018,2.642-14.906,2.642-14.906l25.709-12.813l9.585-4.777
				c-0.025,0.168-0.743,8.898-0.843,10.172C2418.372,1224.486,2425.503,1239.86,2425.503,1239.86z"/>
			<path style="fill:#E58638;" d="M2380.857,1232.743c0.604-0.254,37.444-11.125,41.446-9.804c4.002,1.322,6.372,9.065,6.372,9.065
				l-60.259,13.623C2368.417,1245.627,2373.159,1235.984,2380.857,1232.743z"/>
			<path style="fill:#EE9849;" d="M2480.063,1479.933c-6.245,28.487-110.173,31.866-136.962,6.007
				c-3.048-2.947-3.197-16.66-2.049-35.15c2.248-36.125,9.467-90.465,9.748-118.229c0.137-13.406,1.979-27.12,4.434-39.571
				c5.221-26.54,13.182-47.365,13.182-47.365s50.763-16.411,60.261-13.62C2474.436,1245.449,2486.307,1451.445,2480.063,1479.933z"
				/>
			<path style="fill:#E58638;" d="M2341.052,1450.789c2.248-36.125,9.467-90.465,9.748-118.229
				c0.137-13.406,1.979-27.12,4.434-39.571l30.536-5.39C2385.77,1287.6,2415.625,1409.544,2341.052,1450.789z"/>
			<path style="fill:#FFB27D;" d="M2357.588,1400.437c0,0,2.081,4.975-2.29,8.315s-7.206,8.753-6.205,12.707
				c1.002,3.955,10.59,10.407,13.913,9.367c3.324-1.041,10.089-6.25,9.361-8.336c-0.729-2.086,4.55-18.308-3.554-24.552
				C2360.71,1391.693,2357.588,1400.437,2357.588,1400.437z"/>
			<path style="fill:#EE9849;" d="M2391.732,1238.315c0,0-29.78,5.572-53.51,40.542s-39.341,60.968-34.97,73.572
				c4.371,12.603,44.216,56.314,51.085,56.314s17.955-4.995,18.579-16.235c0,0-28.053-42.044-22.526-48.342
				c2.361-2.69,36.42-30.34,41.282-17.851C2399.718,1346.98,2391.732,1238.315,2391.732,1238.315z"/>
			<path style="fill:#FCA56B;" d="M2418.241,1202.255c-5.646,10.803-26.683,20.145-35.457,23.58c0.1-0.556,0.2-1.112,0.294-1.655
				c1.417-8.018,2.642-14.906,2.642-14.906l25.709-12.813C2417.11,1196.373,2420.57,1197.81,2418.241,1202.255z"/>
			<path style="fill:#FFB27D;" d="M2377.436,1209.86c0,0,38.058,11.872,45.086-11.942s16.674-38.32-7.328-46.906
				c-24.001-8.587-31.426-0.899-35.705,6.479S2367.718,1206.158,2377.436,1209.86z"/>
			<path style="fill:#163560;" d="M2380.983,1155.195c0,0,2.427,27.712,8.157,26.509c5.731-1.203,10.929-2.095,10.09,6.258
				c-0.839,8.354-8.786,18,8.876,19.477c17.661,1.478,43.052-44.07,38.199-52.695
				C2432.307,1129.862,2360.749,1124.84,2380.983,1155.195z"/>
		</g>
		<g>
			<polygon style="fill:#FFB27D;" points="1695.787,1799.154 1707.374,1847.952 1724.728,1847.854 1725.365,1799.154 			"/>
			<polygon style="fill:#FFB27D;" points="1841.768,1801.234 1874.734,1847.952 1887.583,1831.455 1867.742,1794.812 			"/>
			<path style="fill:#163560;" d="M1756.061,1157.91c-5.991-3.406-13.171-3.777-18.193-3.48c1.293-1.335,3.837-1.821,3.837-1.821
				c-3.114-0.463-10.065,2.626-10.065,2.626c-43.317-16.691-50.125,47.089-49.215,61.908c0.904,14.816-14.556,19.655-37.093,31.33
				c-43,22.277-46.777,52.105-46.777,52.105c0.335,0.197,0.685,0.423,1.057,0.679c2.133-3.614,6.525-10.402,10.229-11.426
				c-0.141,0.328-4.376,9.345-5.958,14.511c12.686,9.65,36.417,31.032,52.956,46.191c-0.074-2.962,0.044-7.17,1.126-9.391
				l2.043,12.305c8.85,8.136,14.953,13.86,14.953,13.86c-1.093-11.975,54.157-75.165,82.981-94.09
				c7.017-10.331,9.511-28.58,9.698-30.017c-1.211,14.47-3.687,22.586-5.899,27.156
				C1786.15,1247.892,1771.94,1166.933,1756.061,1157.91z"/>
			<path style="fill:#FFB27D;" d="M1756.237,1274.158c0.144,0.064-13.918,7.366-24.495,4.473
				c-9.949-2.713-16.45-15.613-16.313-15.642c4.214-0.837,5.428-6.627,5.339-31.508l1.905,0.375l32.027,6.342
				c0,0-0.729,10.079-0.75,19.574C1753.928,1265.746,1754.412,1273.307,1756.237,1274.158z"/>
			<path style="fill:#E37970;" d="M1720.019,1168.354c0,0,15.799-16.819,35.635-0.86
				C1755.653,1167.493,1744.109,1165.497,1720.019,1168.354z"/>
			<path style="fill:#D68D5D;" d="M1754.7,1238.199c0,0-0.729,10.079-0.75,19.574c-17.922-0.505-27.396-16.854-31.277-25.916
				L1754.7,1238.199z"/>
			<path style="fill:#163560;" d="M1719.365,1228.37c0,0-9.392-14.84-11.646-27.529c-1.61-9.06,3.004-42.64,36.75-37.804
				c0,0,9.801,0.966,19.013,7.188c7.327,4.948,17.9,15.631,6.078,44.934l-3.071,9.899L1719.365,1228.37z"/>
			<path style="fill:#80BDCC;" d="M1882.353,1818.648l-16.977,0.52l-18.376,0.563c0,0-42.445-47.259-66.255-123.016
				c-0.556-1.761-1.14-3.543-1.76-5.347c-13.031-37.993-40.043-85.685-54.278-128.852c-2.266-6.876-4.3-13.348-6.125-19.474
				c-0.584-1.962-1.155-3.889-1.696-5.786c-10.491-36.449-13.528-60.382-16.327-85.951l102.792,0.822
				C1803.349,1452.129,1819.943,1626.73,1882.353,1818.648z"/>
			<path style="fill:#E7F1FD;" d="M1788.958,1393.063c-0.259,48.915,7.175,69.9,7.175,69.9s-44.011,22.361-96.319,5.901
				c-0.616-0.193-43.312-9.938-43.312-9.938c0.876-1.979,8.661-34.943,9.514-36.76c11.043-23.717,19.43-34.116,20.74-41.407
				c2.429-13.612,2.482-27.696,1.272-40.98c-3.191-35.165-12.685-64.356-12.685-64.356c14.253-3.243,27.969-8.789,42.804-14.353
				c3.412,4.249,13.474,8.544,22.522,8.34c10.419-0.229,13.673-4.635,13.291-9.6c11.104,6.179,19.93,12.056,19.93,12.056
				c9.437,16.392,28.576,32.31,29.962,57.455C1804.195,1335.504,1788.966,1391.693,1788.958,1393.063z"/>
			<path style="fill:#5F9AA8;" d="M1700.556,1398.516c-4.494,6.359-13.108,45.014-34.541,49.872
				c11.043-27.549,19.43-39.628,20.74-48.098c2.429-15.812,2.482-32.172,1.272-47.603c7.174-12.575,12.529-21.196,12.529-21.196
				c0.563-2.034,11.402-35.546,14.875-5.591C1718.896,1355.863,1705.575,1391.402,1700.556,1398.516z"/>
			<path style="fill:#FFB27D;" d="M1760.686,1247.189c0,0-42.403,0.699-42.432-25.714c-0.029-26.413-5.522-44.111,21.55-45.675
				s32.343,8.509,34.497,17.323C1776.455,1201.938,1771.715,1246.327,1760.686,1247.189z"/>
			<path style="fill:#163560;" d="M1773.04,1178.438c-6.543-7.932-11.492-6.208-14.27-3.825
				c-9.163-13.692-38.125,6.109-38.125,6.109c-2.836,18.952-16.503,29.809-16.503,29.809s7.729,4.774,25.546,0.192
				c14.022-3.606,24.198-23.563,27.897-31.903c2.521,2.241,7.843,7.421,9.437,12.494c2.114,6.727,3.065,20.573,7.1,20.102
				C1774.123,1211.415,1782.87,1190.353,1773.04,1178.438z"/>
			<path style="fill:#FFB27D;" d="M1706.791,1845.225c0,0,1.398,9.665-2.209,20.007c0,0-2.841,12.942,9.905,13.183
				c12.747,0.24,15.873-0.962,14.43-8.898s-4.188-21.661-4.188-21.661L1706.791,1845.225z"/>
			<path style="fill:#C45446;" d="M1730.12,1884.765c0,0-0.014,0.008-0.042,0.029h-26.373c-0.028-0.021-0.042-0.029-0.042-0.029
				c-1.442-6.77,0.915-19.521,0.915-19.521c14.434,13.8,23.468-0.346,23.468-0.346
				C1730.39,1870.799,1730.12,1884.765,1730.12,1884.765z"/>
			<path style="fill:#FFB27D;" d="M1918.3,1871.415c0,0-23.501-26.688-30.716-39.96l-17.474,8.952l39.061,36.684l9.139-1.202
				L1918.3,1871.415z"/>
			<path style="fill:#C45446;" d="M1932.713,1884.719h-32.605c-2.871-2.586-5.609-7.799-8.965-14.635
				c-1.92-3.917-6.226-6.073-10.642-7.259v21.894h-6.746l-6.247-23.28c-4.16-7.8-1.035-14.953,1.891-21.116
				c3.404-0.008,13.279,2.453,30.639,22.398c5.706,6.552,12.001,8.889,18.262,8.694c0.083,0.055,0.173,0.104,0.256,0.139
				C1928.442,1876.088,1931.667,1881.662,1932.713,1884.719z"/>
			<path style="fill:#E37970;" d="M1931.132,1291.025c0,0-27.835,15.564-37.777,20.051c-3.536,1.594-9.942,4.575-16.486,7.633
				c-3.952,1.844-7.952,3.723-11.412,5.352c-5.845,2.745-12.798,1.241-17-3.668c-15.072-17.598-54.077-55.74-94.358-60.522
				l-0.14-0.061c0,0,0.006,0.016,0.018,0.045c-0.017-0.002-0.034-0.004-0.051-0.007l0.223,0.435
				c2.264,5.63,24.346,60.804,25.031,72.439c0.722,12.266,2.886,200.576,2.886,200.576s-1.443,8.658,15.152,5.05
				c16.594-3.606,20.923-7.214,20.923-7.214s-15.873-116.161-11.544-156.565c0.849-7.928,0.083-16.838-1.69-26.039
				c24.532,14.859,53.458,21.47,53.458,21.47s10.788-4.708,27.551-15.094c7.037-4.367,15.199-11.329,23.232-18.693
				c9.706-8.897,26.407-30.392,26.407-30.392L1931.132,1291.025z"/>
			<path style="fill:#5F9AA8;" d="M1865.375,1819.168l-18.376,0.563c0,0-42.445-47.259-66.255-123.016
				c-0.556-1.761-1.14-3.543-1.76-5.347c-13.031-37.993-40.043-85.685-54.278-128.852c-2.266-6.876-4.3-13.348-6.125-19.474
				c-0.584-1.962-1.155-3.889-1.696-5.786l15.137-11.486c0,0,45.447,73.593,59.516,142.85
				C1803.76,1728.779,1852.706,1801.167,1865.375,1819.168z"/>
			<path style="fill:#80BDCC;" d="M1733.602,1675.07c0.26,33.68-1.443,111.11-5.83,143.167h-16.277
				c-8.997,0-13.485-0.13-13.485-0.13c-11.002-55.735-18.831-101.854-24.531-141.594c-4.675-32.611-8.831-60.569-12.027-84.639
				c-3.218-24.221-5.454-44.502-6.255-61.637c-0.123-2.699-0.217-5.325-0.268-7.872c-0.05-2.562-0.065-5.051-0.043-7.468
				l88.816-8.658C1742.584,1565.252,1733.458,1655.497,1733.602,1675.07z"/>
			<path style="fill:#5F9AA8;" d="M1711.495,1818.237c-8.997,0-13.485-0.13-13.485-0.13
				c-11.002-55.735-18.831-101.854-24.531-141.594c-4.675-32.611-8.831-60.569-12.027-84.639
				c-3.218-24.221-5.454-44.502-6.255-61.637l32.589,19.169c0,0-20.801,7.338-12.864,62.894
				C1682.859,1667.855,1700.449,1810.373,1711.495,1818.237z"/>
			<path style="fill:#E37970;" d="M1715.689,1529.69c0,0-6.255,22.604-27.9,19.719c-21.645-2.887-52.424-15.874-52.424-15.874
				s9.25-29.227,20.75-67.625c13.925-46.486,31.161-106.414,39.285-144.213c2.28-10.591,3.838-19.437,4.416-25.771l18.331-34.856
				c0,0,26.402,60.108,27.845,75.26S1715.689,1529.69,1715.689,1529.69z"/>
			<path style="fill:#FFB27D;" d="M1792.992,1353.242c-10.417,1.369-14.412,6.905-15.698,14.374
				c-0.694,4.029-2.771,8.012-4.536,10.827c-10.377,0.556-35.09,1.902-55.853,3.216l-1.712,27.233
				c17.056-2.124,38.016-6.451,62.137-14.708c1.853-0.317,4.17-1.468,7.072-3.844c14.947-12.243,23.432-32.743,23.458-35.679
				C1807.887,1351.726,1803.409,1351.873,1792.992,1353.242z"/>
			<path style="fill:#C45446;" d="M1714.729,1368.075c-0.967,24.531-6.739,72.149-58.203,97.641
				c-0.137,0.064-0.274,0.137-0.411,0.194c13.925-46.486,31.161-106.414,39.285-144.213
				C1704.852,1335.824,1715.256,1354.568,1714.729,1368.075z"/>
			<path style="fill:#E37970;" d="M1718.146,1261.069c0,0-44.023,3.121-54.604,26.69c-10.582,23.568-13.949,101.972-0.481,125.059
				c0,0,18.542,5.281,51.337-0.852c0.402-0.074,0.806-0.151,1.212-0.229c0,0,10.462-25.614,1.082-30.664
				c0,0-27.657,1.442-24.771-7.696C1694.807,1364.238,1718.146,1261.069,1718.146,1261.069z"/>
			<g>
				<path style="fill:#FFB27D;" d="M1960.976,1272.527c-23.685-3.044-29.663,18.5-29.663,18.5l4.422,14.796
					c7.3,1.008,13.689-0.895,19.575-9.317s7.507-5.189,11.249-11.457C1971.636,1276.546,1963.694,1273.379,1960.976,1272.527z"/>
				<path style="fill:#FFB27D;" d="M1893.355,1311.076c-3.536,1.594-9.942,4.575-16.486,7.633
					c3.501,6.219,7.883,17.519,9.047,36.196c7.037-4.367,16.148-11.638,23.925-19.271c12.479-12.247,25.714-29.813,25.714-29.813
					l-4.423-14.795C1931.132,1291.025,1903.297,1306.59,1893.355,1311.076z"/>
			</g>
		</g>
		<g>
			<g>
				<path style="fill:#E49963;" d="M3149.761,1482.686c0,0-16.842,4.325-27.548,1.1s-29.132,2.072-32.1,5.976
					s-1.877,5.455,3.418,6.803c5.295,1.347,24.055,9.349,36.384,4.717c12.328-4.631,28.409-4.799,28.409-4.799L3149.761,1482.686z"
					/>
				<path style="fill:#4A75CB;" d="M3295.316,1336.385c0,0-18.92,134.468-50.248,146.512
					c-15.458,5.943-83.774,19.414-103.982,20.768c0,0-4.951-4.017-3.745-20.363c0,0,71.576-26.277,81.744-40.567
					c15.133-21.268-9.396-86.887,9.594-106.861C3247.669,1315.897,3279.65,1307.313,3295.316,1336.385z"/>
			</g>
			<path style="fill:#2B478B;" d="M3292.899,1854.499v-29.317h46.157c1.246,0,2.265-1.02,2.265-2.265v-4.697
				c0-1.245-1.019-2.265-2.265-2.265h-46.157v-166.893c0-4.684-3.832-8.515-8.515-8.515h-9.134c-4.684,0-8.515,3.831-8.515,8.515
				v166.893h-46.157c-1.246,0-2.266,1.02-2.266,2.265v4.697c0,1.245,1.02,2.265,2.266,2.265h46.157v29.317
				c-33.396,2.524-60.153,14.547-67.659,30.082h161.481C3353.053,1869.046,3326.296,1857.023,3292.899,1854.499z"/>
			<path style="fill:#163560;" d="M3288.939,1619.682c-5.519,9.362-11.901,18.135-18.48,26.443
				c-20.335,25.67-42.469,46.835-46.326,66.843c-0.766,3.987-1.983,8.281-3.574,12.806c-1.61,4.583-3.601,9.401-5.898,14.383
				c-8.629,18.744-21.533,39.746-34.417,58.836c-22.271,33.003-43.215,60.541-43.215,60.541l-38.408-1.637
				c1.538-3.85,18.29-49.418,40.699-105.104c9.101-22.606,18.776-46.652,28.112-69.841c1.244-3.097,2.487-6.181,3.719-9.238
				c2.854-7.097,5.663-14.082,8.405-20.885c21.042-52.289,37.802-93.927,37.802-93.927s84.1-31.858,92.833-11.214
				C3317.393,1564.709,3311.526,1581.384,3288.939,1619.682z"/>
			<path style="fill:#163560;" d="M3135.828,1852.55c0,0-1.965,31.694-8.097,32.148c-0.816,0.061-31.101,0.061-31.101,0.061
				l-38.659-0.225c0,0,0.254-9.314,11.554-11.284c11.301-1.969,30.215-9.91,37.06-24.846
				C3113.787,1832.691,3135.828,1852.55,3135.828,1852.55z"/>
			<path style="fill:#163560;" d="M3224.765,1762.007c0,0,26.715,17.167,24.122,22.741c-0.345,0.742-15.108,27.185-15.108,27.185
				l-19.042,33.645c0,0-8.01-4.762-4.221-15.589c3.79-10.826,6.077-31.212-3.627-44.47
				C3196.681,1771.57,3224.765,1762.007,3224.765,1762.007z"/>
			<path style="fill:#1C468A;" d="M3188.618,1543.78c0,0-105.562,65.755-117.345,109.943s140.422,138.458,140.422,138.458
				s16.693-14.729,19.64-25.531c0,0-68.799-82.426-83.724-100.902c-9.164-11.348,135.521-39.283,153.195-66.777
				c17.676-27.496,11.349-50.63,11.349-50.63L3188.618,1543.78z"/>
			<path style="fill:#EE9849;" d="M3387.84,1628.216h-216.045c-4.32,0-7.855,3.535-7.855,7.855v43.209
				c0,4.321,3.535,7.856,7.855,7.856h216.045c4.321,0,7.857-3.535,7.857-7.856v-43.209
				C3395.697,1631.751,3392.161,1628.216,3387.84,1628.216z"/>
			<path style="fill:#E49963;" d="M3237.432,1313.335c-10.368,6.422-16.081,14.573-16.081,14.573
				c25.289,6.542,67.213-16.893,67.213-16.893s-16.278-10.938-22.309-34.971c-0.306-1.213-0.584-2.456-0.829-3.729
				c-0.79-4.048-1.28-8.43-1.369-13.159l-11.617,10.407l-19.317,17.307c0,0,0.438,7.181,2.855,19.533
				C3236.397,1308.56,3236.879,1310.873,3237.432,1313.335z"/>
			<path style="fill:#739AF0;" d="M3315.224,1432.64c-3.622,48.721,2.47,122.79-1.64,135.623
				c-3.547,11.071-45.282,4.519-61.412,0.821c-5.97-1.368-13.201-3.322-20.67-5.633c-20.831-6.45-43.53-15.661-45.966-22.499
				c-0.094-0.269-0.175-0.531-0.225-0.787c-0.225-0.992-0.175-1.923,0.044-2.865c0.812-3.485,3.939-7.257,4.309-15.887
				c0.412-9.636,0.35-20.982,0.712-33.184c0.019-1.374,0.037-2.872,0.187-4.24l0.007-0.499c0.006-0.263,0.013-0.519,0.019-0.781
				c0.35-13.606,1.062-27.913,1.886-42.101c0.525-8.911,1.13-17.734,1.83-26.189c1.817-21.824,4.265-41.232,7.506-53.504
				c5.296-20.001,16.973-33.046,27.602-42.606l7.687-6.594c8.58,1.873,18.721,0.63,27.895-3.716
				c9.929-4.715,13.356-8.094,15.087-6.819C3303.009,1318.87,3319.501,1373.08,3315.224,1432.64z"/>
			<path style="fill:#4A75CB;" d="M3231.621,1563.549c-20.831-6.451-43.53-15.661-45.966-22.499
				c-0.094-0.269-0.175-0.531-0.225-0.787c0.013-0.955,0.024-1.911,0.043-2.866c0.813-3.484,3.94-7.256,4.31-15.886
				c0.412-9.636,0.35-20.982,0.712-33.184c0.019-1.374,0.037-2.872,0.188-4.24l0.006-0.499c0.006-0.263,0.013-0.52,0.019-0.781
				l78.688-35.688C3269.396,1447.119,3273.929,1510.539,3231.621,1563.549z"/>
			<path style="fill:#D68D5D;" d="M3233.122,1286.871c0,0,0.438,7.181,2.855,19.533c18.862-6.095,27.42-23.133,30.277-30.359
				c0.813-2.042,1.165-3.304,1.165-3.304s-0.732-0.158-1.994-0.425c-2.651-0.563-7.645-1.623-12.986-2.752L3233.122,1286.871z"/>
			<path style="fill:#E49963;" d="M3225.486,1286.682c0,0,41.441,4.674,43.955-21.179c2.514-25.853,9.556-42.661-16.798-46.739
				s-32.462,5.287-35.399,13.712C3214.307,1240.901,3214.771,1284.799,3225.486,1286.682z"/>
			<path style="fill:#2B478B;" d="M3269.263,1267.287c0,0-2.627-34.317-40.351-37.872c-25.839-2.435-11.434-24.673-8.68-28.221
				c0,0,19.797,2.714,40.089,6.067C3302.912,1214.299,3273.445,1261.944,3269.263,1267.287z"/>
			<g>
				
					<rect x="3049.51" y="1419.54" transform="matrix(0.9511 -0.309 0.309 0.9511 -304.7381 1014.7974)" style="fill:#4A75CB;" width="3.814" height="99.876"/>
				
					<rect x="3064.956" y="1510.173" transform="matrix(0.9998 -0.0214 0.0214 0.9998 -31.6075 66.9201)" style="fill:#4A75CB;" width="104.808" height="6.27"/>
			</g>
			<g>
				<path style="fill:#E49963;" d="M3158.428,1503.357c0,0-16.262,6.156-27.259,4.131c-10.996-2.025-28.726,5.271-31.245,9.479
					c-2.519,4.207-1.265,5.629,4.146,6.384c5.412,0.755,24.939,6.64,36.683,0.678c11.744-5.962,27.707-7.902,27.707-7.902
					L3158.428,1503.357z"/>
				<path style="fill:#739AF0;" d="M3286.967,1341.902c0,0-3.979,135.734-33.789,151.158
					c-14.708,7.611-81.123,28.532-101.059,32.104c0,0-5.363-3.445-5.967-19.825c0,0,68.242-34.008,76.772-49.333
					c12.696-22.807-18.917-85.32-2.245-107.268C3237.351,1326.793,3268.191,1314.734,3286.967,1341.902z"/>
			</g>
		</g>
		<path style="fill:#202F4E;" d="M3745.561,1888.904H1620.884c-1.14,0-2.073-0.934-2.073-2.072l0,0c0-1.141,0.933-2.073,2.073-2.073
			h2124.677c1.14,0,2.072,0.933,2.072,2.073l0,0C3747.633,1887.971,3746.7,1888.904,3745.561,1888.904z"/>
	</g>
</g>
</svg>
